<svg id="Banner_Image_-_Home_Copy" data-name="Banner Image - Home Copy" xmlns="http://www.w3.org/2000/svg" xmlns:xlink="http://www.w3.org/1999/xlink" width="500" height="300" viewBox="0 0 500 300">
  <defs>
    <clipPath id="clip-path">
      <rect id="Mask" width="500" height="300" fill="none"/>
    </clipPath>
    <clipPath id="clip-path-2">
      <path id="Clip_14" data-name="Clip 14" d="M0,0H92.705V48.2H0Z" transform="translate(0 0.361)" fill="none"/>
    </clipPath>
    <clipPath id="clip-path-3">
      <path id="Clip_151" data-name="Clip 151" d="M0,0H42.222V18.976H0Z" transform="translate(0.365 0.513)" fill="none"/>
    </clipPath>
    <clipPath id="clip-path-4">
      <path id="Clip_154" data-name="Clip 154" d="M0,0H80.735V18.9H0Z" transform="translate(0.622 0.591)" fill="none"/>
    </clipPath>
    <clipPath id="clip-path-5">
      <path id="Clip_171" data-name="Clip 171" d="M0,279.255H472.453V0H0Z" transform="translate(0 0.095)" fill="none"/>
    </clipPath>
    <clipPath id="clip-path-6">
      <path id="Clip_179" data-name="Clip 179" d="M17.585.21c-6.595,1.1-13.921,8.151-13.1,15.2h0s-.917-.091-.917-2.655h0S0,13.674,0,17.062H0c0,3.389,6.5,3.205,7.693,3.3h0C8.7,20.177,49,19.81,49,19.81H61.638s3.114-.457-1.832-.824h0l-5.037-.457a2.445,2.445,0,0,0-.641-3.023h0a2.5,2.5,0,0,0-1.93-.437h0c-.7.075-1.25.15-1.825-1.211h0c-.825-2.015-3.115-7.6-9.068-7.876h0c-6.137-.275-9.25,2.931-9.25,2.931h0a5.225,5.225,0,0,1,1.831-2.29h0a13.656,13.656,0,0,1-4.121-2.656h0A13.164,13.164,0,0,0,20.192,0h0a16.77,16.77,0,0,0-2.607.21" transform="translate(0.521 0.423)" fill="none"/>
    </clipPath>
    <clipPath id="clip-path-7">
      <path id="Clip_182" data-name="Clip 182" d="M12.072,5.129a6.2,6.2,0,0,0-3.023-.641h0C6.485,4.579,5.477,7.053,5.2,7.876h0c-.262.576-.494.554-.8.531h0a1.193,1.193,0,0,0-.851.2h0a.945.945,0,0,0-.274,1.282h0l-2.107.183c-2.106.184-.732.366-.732.366h5.4s10.166.092,15.112.183h0a2.724,2.724,0,0,0,1.373.458H34.6a3.277,3.277,0,0,0,2.473-1.374h0a2,2,0,0,1,.275-.457h1.282A2.452,2.452,0,0,0,40.556,8.06h0a.875.875,0,0,0-.825-1.374h-5.5a4.6,4.6,0,0,0-4.854-4.121h0a6.367,6.367,0,0,0-5.037,2.564h0C23.246,2.381,21.6,0,18.3,0h0c-3.389,0-6.136,2.381-6.228,5.129" transform="translate(0.295 0.133)" fill="none"/>
    </clipPath>
    <clipPath id="clip-path-9">
      <path id="Clip_411" data-name="Clip 411" d="M0,.235A.257.257,0,0,0,.236.512h0l1.957.16h.022A.255.255,0,0,0,2.469.438h0A.256.256,0,0,0,2.235.161h0L.278,0H.257A.259.259,0,0,0,0,.235" transform="translate(0.332 0.2)" fill="none"/>
    </clipPath>
    <clipPath id="clip-path-10">
      <path id="Clip_414" data-name="Clip 414" d="M.256,0A.256.256,0,0,0,0,.252H0A.256.256,0,0,0,.251.513h0L1.792.542l.639,1.364a.255.255,0,0,0,.232.148h0a.261.261,0,0,0,.109-.024h0A.257.257,0,0,0,2.9,1.688h0L2.19.181A.256.256,0,0,0,1.963.033h0L.262,0Z" transform="translate(0.124 0.536)" fill="none"/>
    </clipPath>
    <clipPath id="clip-path-11">
      <path id="Clip_417" data-name="Clip 417" d="M0,.246A.258.258,0,0,0,.246.514h0l1.44.057L2.2,1.83a.257.257,0,0,0,.237.159h0a.247.247,0,0,0,.1-.019h0a.256.256,0,0,0,.14-.334h0L2.1.223A.258.258,0,0,0,1.871.064h0L.267,0A.265.265,0,0,0,0,.246" transform="translate(0.629 0.32)" fill="none"/>
    </clipPath>
    <clipPath id="clip-path-12">
      <path id="Clip_420" data-name="Clip 420" d="M.17.016A.257.257,0,0,0,.015.343h0L.529,1.787a.254.254,0,0,0,.241.17h0a.268.268,0,0,0,.086-.014h0a.257.257,0,0,0,.155-.328h0L.5.171A.257.257,0,0,0,.257,0h0A.238.238,0,0,0,.17.016" transform="translate(0.204 0.327)" fill="none"/>
    </clipPath>
    <clipPath id="clip-path-13">
      <path id="Clip_423" data-name="Clip 423" d="M0,.235A.257.257,0,0,0,.236.512h0L2.193.673h.021A.256.256,0,0,0,2.469.438h0A.255.255,0,0,0,2.236.161h0L.278,0H.262A.261.261,0,0,0,0,.235" transform="translate(0.201 0.064)" fill="none"/>
    </clipPath>
    <clipPath id="clip-path-14">
      <path id="Clip_426" data-name="Clip 426" d="M.256,0A.257.257,0,0,0,0,.252H0A.257.257,0,0,0,.251.515h0L1.792.543,2.43,1.906a.257.257,0,0,0,.233.148h0a.252.252,0,0,0,.109-.025h0a.256.256,0,0,0,.123-.34h0L2.19.181A.257.257,0,0,0,1.962.033h0L.261,0Z" transform="translate(0.642 0.4)" fill="none"/>
    </clipPath>
    <clipPath id="clip-path-15">
      <path id="Clip_429" data-name="Clip 429" d="M0,.247A.257.257,0,0,0,.246.514h0l1.44.057L2.2,1.83a.254.254,0,0,0,.236.159h0a.255.255,0,0,0,.1-.019h0a.255.255,0,0,0,.14-.335h0L2.1.223A.255.255,0,0,0,1.871.065h0L.267,0H.255A.257.257,0,0,0,0,.247" transform="translate(0.497 0.183)" fill="none"/>
    </clipPath>
    <clipPath id="clip-path-16">
      <path id="Clip_432" data-name="Clip 432" d="M.17.016A.256.256,0,0,0,.015.344h0L.528,1.788a.256.256,0,0,0,.242.17h0a.26.26,0,0,0,.085-.014h0a.256.256,0,0,0,.156-.328h0L.5.171A.255.255,0,0,0,.257,0h0A.253.253,0,0,0,.17.016" transform="translate(0.073 0.191)" fill="none"/>
    </clipPath>
  </defs>
  <g id="Group_3" data-name="Group 3">
    <rect id="Mask-2" data-name="Mask" width="500" height="300" fill="none"/>
    <g id="Mask_Group_4" data-name="Mask Group 4" clip-path="url(#clip-path)">
      <g id="Group_447" data-name="Group 447" transform="translate(14 10)">
        <g id="Group_177" data-name="Group 177" transform="translate(0 0.555)">
          <path id="Fill_1" data-name="Fill 1" d="M51.842,20.959H65.213s3.294-.485-1.937-.872l-5.33-.485a2.585,2.585,0,0,0-.678-3.2c-1.939-1.356-2.907.776-3.973-1.744C52.423,12.529,50,6.618,43.7,6.328c-6.492-.292-9.787,3.1-9.787,3.1a5.533,5.533,0,0,1,1.938-2.423,14.451,14.451,0,0,1-4.36-2.81A14.217,14.217,0,0,0,18.6.222C11.628,1.385,3.876,8.847,4.748,16.308c0,0-.969-.1-.969-2.81,0,0-3.78.969-3.78,4.554s6.88,3.391,8.139,3.489c1.066-.194,43.7-.581,43.7-.581" transform="translate(361.867 81.16)" fill="#e2ecf2"/>
          <path id="Fill_3" data-name="Fill 3" d="M101.417,35.9c1.113-3.693-.047-16.327-11.273-16.97a22.4,22.4,0,0,0-4.85.129A21.076,21.076,0,0,0,67.043.229,88.274,88.274,0,0,0,55.867.153c-.018.008-.034.019-.051.027-8.227.75-15.952,6.643-18.4,14.592-5.8-1.482-12.219,4.038-11.614,9.991A20.622,20.622,0,0,0,5.614,30.08a20.587,20.587,0,0,0-4.865,19.6H107.76c2.806-3.185,3.537-10.974-6.343-13.775" transform="translate(25.906 0.095)" fill="#e2ecf2"/>
          <path id="Fill_5" data-name="Fill 5" d="M25.87,69.886c.008-.039.312-1.67.553-4.427,6.135-3.533,3.967-6.808,3.967-6.808-3.118,1.686-3.83,5.727-3.951,6.626a81.7,81.7,0,0,0-.5-17.832c-.025-.181-.058-.359-.084-.54,5.345-4.019,2.935-6.84,2.935-6.84-2.916,2.074-2.946,6.354-2.94,6.8A77.232,77.232,0,0,0,23,34.467c4.551-4.872,1.7-7.229,1.7-7.229-2.354,2.384-1.881,6.235-1.744,7.077a71.722,71.722,0,0,0-3.109-8q-.74-1.6-1.559-3.157c3.63-4.77.863-6.643.863-6.643-1.807,2.223-1.239,5.4-1,6.4A68.035,68.035,0,0,0,11.229,12.33c2.113-4.494-.453-5.534-.453-5.534-1.041,2.038-.143,4.414.253,5.275A69.266,69.266,0,0,0,4.161,4.707l-.01.011C5.959.886,3.771,0,3.771,0c-1.082,2.119.294,4.656.348,4.753l-.068.073A5.269,5.269,0,0,0,0,3.434S.2,5.8,4.416,5.195c.341.323.683.645,1.015.971a68.2,68.2,0,0,1,5.618,6.262,6.148,6.148,0,0,0-4.71-1.592s.232,2.735,5.095,2.082A68.078,68.078,0,0,1,18.105,23.27c-.81-1.041-2.67-3.018-5.195-3.118,0,0-.418,3.3,5.514,3.737a72,72,0,0,1,4.622,11.364c-.227-.443-2.237-4.174-5.756-4.656,0,0-.827,3.617,5.77,4.7a76.993,76.993,0,0,1,2.7,12.165,82.373,82.373,0,0,1,.767,10.829c-.242-1.049-1.311-4.805-4.447-6.189,0,0-1.882,3.418,4.446,6.44.005,3.02-.154,5.575-.337,7.485-.225-1.053-1.232-4.826-4.345-6.261,0,0-1.932,3.379,4.321,6.5-.223,2.246-.469,3.55-.476,3.584Z" transform="translate(69.123 52.073)" fill="#39b54a"/>
          <path id="Fill_7" data-name="Fill 7" d="M3.861,0C.375,1.961,0,6.877,0,6.877,6.085,3.242,3.861,0,3.861,0" transform="translate(95.868 102.919)" fill="#39b54a"/>
          <path id="Fill_9" data-name="Fill 9" d="M.141,0S-1.3,3.423,5.021,5.629c0,0-1.283-4.478-4.88-5.629" transform="translate(89.898 94.169)" fill="#39b54a"/>
          <path id="Fill_11" data-name="Fill 11" d="M55.269,21.443C41.716,13.979,43.961,15.6,31.326,6.125S0,.992,0,.992,7.735,9.964,13.626,31.247,62.567,60.819,62.567,60.819s6.255-31.913-7.3-39.376" transform="translate(28.077 93.567)" fill="#25822d"/>
          <g id="Group_15" data-name="Group 15" transform="translate(0 117.587)">
            <path id="Clip_14-2" data-name="Clip 14" d="M0,0H92.705V48.2H0Z" transform="translate(0 0.361)" fill="none"/>
            <g id="Group_15-2" data-name="Group 15" clip-path="url(#clip-path-2)">
              <path id="Fill_13" data-name="Fill 13" d="M67.835,6.962c-17.7-2.082-14.6-1.331-32.19-5.952S0,9.126,0,9.126s12.145,6.216,27.664,26.364S92.705,45.8,92.705,45.8,85.531,9.044,67.835,6.962" transform="translate(0 0.361)" fill="#39b54a"/>
            </g>
          </g>
          <path id="Fill_16" data-name="Fill 16" d="M13.245,15.734C11.371,4.153.114.693,0,.657L.194,0C.312.035,11.978,3.611,13.923,15.624Z" transform="translate(25.986 116.011)" fill="#fff"/>
          <path id="Fill_18" data-name="Fill 18" d="M91.859,40.154C62.7-.269.611.652.016.687L0,0c.625,0,63.051-.961,92.416,39.751Z" transform="translate(1.083 125.38)" fill="#fff"/>
          <path id="Fill_20" data-name="Fill 20" d="M3.346,9.7C1.307,9.7.053,9.621,0,9.616l.045-.683C.288,8.947,24.1,10.44,34.8,0l.479.49C26.807,8.754,10.4,9.7,3.346,9.7" transform="translate(14.728 133.662)" fill="#fff"/>
          <path id="Fill_22" data-name="Fill 22" d="M.639,19.973c-.359,0-.579-.02-.639-.025l.07-.683C.2,19.278,13.159,20.337,25.736,0l.583.361C14.94,18.76,3.462,19.973.639,19.973" transform="translate(37.697 141.389)" fill="#fff"/>
          <path id="Fill_24" data-name="Fill 24" d="M48.763,67.933a92.4,92.4,0,0,0-8.041-26.059C34.57,28.8,22.511,10.961,0,.194L.094,0A83.393,83.393,0,0,1,26.165,19.428,91.282,91.282,0,0,1,40.921,41.791a92.624,92.624,0,0,1,8.056,26.119Z" transform="translate(36.576 64.671)" fill="#39b54a"/>
          <path id="Fill_26" data-name="Fill 26" d="M.224,9.362S-1.025,3.488,2.374,0c0,0,3.712,3.025-2.15,9.362" transform="translate(84.358 117.877)" fill="#39b54a"/>
          <path id="Fill_28" data-name="Fill 28" d="M7.53,6.014S4.869.63.04,0C.04,0-1,4.675,7.53,6.014" transform="translate(77.169 122.272)" fill="#39b54a"/>
          <path id="Fill_30" data-name="Fill 30" d="M.268,9.4s-1.347-5.853,2-9.4c0,0,3.761,2.963-2,9.4" transform="translate(81.889 108.724)" fill="#39b54a"/>
          <path id="Fill_32" data-name="Fill 32" d="M7.622,5.889S4.872.549.032,0c0,0-.96,4.69,7.589,5.889" transform="translate(74.67 113.275)" fill="#39b54a"/>
          <path id="Fill_34" data-name="Fill 34" d="M.6,9.024S-1.247,3.661,1.537,0c0,0,3.829,2.407-.935,9.024" transform="translate(76.595 96.847)" fill="#39b54a"/>
          <path id="Fill_36" data-name="Fill 36" d="M7.719,4.774S4.6.033,0,0C0,0-.43,4.5,7.719,4.774" transform="translate(69.708 102.065)" fill="#39b54a"/>
          <path id="Fill_38" data-name="Fill 38" d="M1.434,9.051S-1.313,4.088.8,0c0,0,4.187,1.71.637,9.051" transform="translate(67.923 83.416)" fill="#39b54a"/>
          <path id="Fill_40" data-name="Fill 40" d="M8.424,3.463S4.537-.668,0,.094c0,0,.35,4.51,8.424,3.37" transform="translate(61.327 89.917)" fill="#39b54a"/>
          <path id="Fill_42" data-name="Fill 42" d="M1.826,8.141S-1.1,3.887.455,0c0,0,3.942,1.181,1.371,8.141" transform="translate(57.924 72.956)" fill="#39b54a"/>
          <path id="Fill_44" data-name="Fill 44" d="M7.926,2.528S4.041-.873,0,.215c0,0,.713,4.054,7.926,2.313" transform="translate(52.444 79.24)" fill="#39b54a"/>
          <path id="Fill_46" data-name="Fill 46" d="M2.6,6.372S-.513,3.426.074,0c0,0,3.4.277,2.523,6.372" transform="translate(45.043 64.7)" fill="#39b54a"/>
          <path id="Fill_48" data-name="Fill 48" d="M6.835,1.1S3.093-.991,0,.594c0,0,1.28,3.167,6.835.5" transform="translate(41.425 70.412)" fill="#39b54a"/>
          <path id="Fill_50" data-name="Fill 50" d="M2.208,5.418S-.437,2.912.063,0c0,0,2.895.235,2.145,5.418" transform="translate(34.445 59.338)" fill="#39b54a"/>
          <path id="Fill_52" data-name="Fill 52" d="M5.812.933S2.63-.842,0,.5C0,.5,1.089,3.2,5.812.933" transform="translate(31.369 64.195)" fill="#39b54a"/>
          <path id="Fill_54" data-name="Fill 54" d="M89.275,67.734S53.565,5.462,11.581,6.672,52.508-31.373,89.275,67.734" transform="translate(5.69 96.114)" fill="#8dc63f"/>
          <path id="Fill_56" data-name="Fill 56" d="M66.65,86.759S46.659,24.838,9.832,9.858C-30.4-6.509,65.791-14.574,66.65,86.759" transform="translate(28.315 77.09)" fill="#8dc63f"/>
          <path id="Fill_58" data-name="Fill 58" d="M66.385,41.323S40.241,1.98,10.028,9.047,23.5-32.036,66.385,41.323" transform="translate(28.982 124.076)" fill="#8dc63f"/>
          <path id="Fill_60" data-name="Fill 60" d="M68.365,82.216c-.087-.439-8.928-44.159-25.359-61.667C26.6,3.069.264.7,0,.683L.057,0C.323.021,26.918,2.4,43.507,20.081,52.171,29.314,58.653,45.686,62.563,57.8a242.977,242.977,0,0,1,6.474,24.287Z" transform="translate(25.951 79.398)" fill="#fff"/>
          <path id="Fill_62" data-name="Fill 62" d="M67.331,36.967c-7.751-16.3-27.938-30.1-39.8-34.689C15.106-2.531.468,5.058.32,5.134L0,4.529c.149-.079,15.062-7.815,27.78-2.89C39.744,6.271,60.118,20.2,67.95,36.673Z" transform="translate(27.324 127.029)" fill="#fff"/>
          <path id="Fill_64" data-name="Fill 64" d="M32.627,102.112S50.119,59.229,5.341,11.3c-29.212-31.264,73.066,3.379,27.286,90.808" transform="translate(58.5 68.416)" fill="#8dc63f"/>
          <path id="Fill_66" data-name="Fill 66" d="M86.475,54.617C71.554,22.1,48.874,9.3,32.476,4.3A78.754,78.754,0,0,0,.112,1.187L0,.51A79.5,79.5,0,0,1,32.646,3.633C49.188,8.677,72.063,21.567,87.1,54.331Z" transform="translate(3.762 98.865)" fill="#fff"/>
          <path id="Fill_68" data-name="Fill 68" d="M39.022,99.277l-.68-.089c.062-.475,6.01-47.753-5.3-69.566C21.753,7.85.215.723,0,.653L.209,0C.428.071,22.227,7.276,33.65,29.306c11.41,22,5.434,69.493,5.372,69.971" transform="translate(55.287 67.102)" fill="#fff"/>
          <path id="Fill_70" data-name="Fill 70" d="M54.666,44.728c-.014-.035-.6-1.5-1.818-3.83,3.112-5.964-.3-7.481-.3-7.481-1.636,2.942-.144,6.545.218,7.327a77.579,77.579,0,0,0-9.505-14.035c-.112-.132-.229-.259-.343-.39,2.23-5.95-1.142-6.979-1.142-6.979-1.277,3.151.885,6.6,1.117,6.95a73.383,73.383,0,0,0-8.616-8.479c1.159-6.228-2.332-6.66-2.332-6.66-.668,3.112,1.677,5.957,2.217,6.561a68.086,68.086,0,0,0-6.579-4.826q-1.41-.906-2.861-1.735c.473-5.676-2.7-5.764-2.7-5.764-.312,2.705,1.765,4.96,2.466,5.637A64.646,64.646,0,0,0,13.541,6.084c-.6-4.68-3.189-4.2-3.189-4.2.206,2.165,2.139,3.609,2.9,4.1A65.819,65.819,0,0,0,3.984,3.585l0,.014C3.474-.4,1.268.012,1.268.012c.215,2.25,2.613,3.581,2.706,3.632l-.018.092A5.006,5.006,0,0,0,0,4.689s1.363,1.793,4.438-.844c.438.084.877.168,1.309.259a64.756,64.756,0,0,1,7.7,2.148,5.844,5.844,0,0,0-4.587,1.13s1.584,2.074,5.147-.934a64.74,64.74,0,0,1,10.632,4.89c-1.181-.421-3.681-1.055-5.755.155,0,0,1.349,2.855,6.328.178a68.458,68.458,0,0,1,9.507,6.746c-.409-.239-3.924-2.2-6.99-.791,0,0,1.184,3.32,7.024.819a73.074,73.074,0,0,1,8.38,8.368A78.073,78.073,0,0,1,49.276,35.1c-.729-.716-3.5-3.181-6.724-2.688,0,0,.237,3.7,6.851,2.89,1.547,2.418,2.725,4.546,3.554,6.17-.719-.729-3.452-3.238-6.679-2.8,0,0,.177,3.695,6.782,3,.968,1.913,1.437,3.083,1.45,3.115Z" transform="translate(43.377 102.12)" fill="#39b54a"/>
          <path id="Fill_72" data-name="Fill 72" d="M.7,0c-1.792,3.35.418,7.483.418,7.483C4.139,1.462.7,0,.7,0" transform="translate(91.413 129.171)" fill="#39b54a"/>
          <path id="Fill_74" data-name="Fill 74" d="M0,.177S.593,3.655,6.784,2.194c0,0-3.314-2.933-6.784-2.017" transform="translate(79.881 126.932)" fill="#39b54a"/>
          <path id="Fill_76" data-name="Fill 76" d="M25.445,3.6c16.3-.647,13.416-.181,29.794-3.153s31.952,9.93,31.952,9.93-11.522,4.812-27.111,22.1S0,37.28,0,37.28,9.148,4.244,25.445,3.6" transform="translate(254.522 201.602)" fill="#25822d"/>
          <path id="Fill_78" data-name="Fill 78" d="M39.541.813c16.727,6.042,13.626,5.33,31.391,9.056s28.2,23.157,28.2,23.157S81.1,16.133,58.252,27.19,0,24.382,0,24.382,22.814-5.229,39.541.813" transform="translate(252.677 222.57)" fill="#39b54a"/>
          <path id="Fill_80" data-name="Fill 80" d="M23.218,14.265a21.361,21.361,0,0,1-7.963-2.843C4.478,5.422.044.454,0,.4L.458,0C.5.049,4.88,4.946,15.553,10.888c10.481,5.836,13.937.758,13.972.707l.513.33c-.105.163-1.938,2.863-6.819,2.341" transform="translate(277.037 240.474)" fill="#fff"/>
          <path id="Fill_82" data-name="Fill 82" d="M.475,11.231,0,10.847C.378,10.379,9.334-.614,15.324.027l-.065.607C9.6.029.566,11.119.475,11.231" transform="translate(292.294 228.091)" fill="#fff"/>
          <path id="Fill_84" data-name="Fill 84" d="M.248,11.853,0,11.294c.19-.083,19.187-8.388,39.151-9.134,3.866-.145,7.709-.6,11.423-1.043C66.468-.773,82.9-2.726,108.927,17.553l-.375.484C82.723-2.092,66.416-.151,50.648,1.723c-3.728.443-7.583.9-11.473,1.047C19.33,3.512.435,11.77.248,11.853" transform="translate(243.067 237.802)" fill="#fff"/>
          <path id="Fill_86" data-name="Fill 86" d="M.181,38.93A92.257,92.257,0,0,1,18.991,19.257C30.319,10.334,49.049-.209,73.951.228l0-.214a83.232,83.232,0,0,0-31.947,5.7A91.066,91.066,0,0,0,18.852,19.094,92.439,92.439,0,0,0,0,38.812Z" transform="translate(272.977 183.508)" fill="#39b54a"/>
          <path id="Fill_88" data-name="Fill 88" d="M.688,9.317S4.427,4.631,2.948,0c0,0-4.664,1.043-2.26,9.317" transform="translate(275.539 208.668)" fill="#39b54a"/>
          <path id="Fill_90" data-name="Fill 90" d="M0,2.43S4.779-1.189,9.372.406c0,0-1.16,4.636-9.372,2.024" transform="translate(275.655 216.438)" fill="#39b54a"/>
          <path id="Fill_92" data-name="Fill 92" d="M.62,9.279S4.435,4.655,3.033,0c0,0-4.681.965-2.413,9.279" transform="translate(281.843 201.649)" fill="#39b54a"/>
          <path id="Fill_94" data-name="Fill 94" d="M0,2.317S4.838-1.222,9.4.448c0,0-1.237,4.617-9.4,1.87" transform="translate(281.877 209.484)" fill="#39b54a"/>
          <path id="Fill_96" data-name="Fill 96" d="M.236,8.473S4.281,4.511,3.429,0c0,0-4.492.44-3.194,8.473" transform="translate(292.123 193.735)" fill="#39b54a"/>
          <path id="Fill_98" data-name="Fill 98" d="M0,1.544S4.9-1.3,9.018.728c0,0-1.622,4.213-9.018.817" transform="translate(291.722 201.425)" fill="#39b54a"/>
          <path id="Fill_100" data-name="Fill 100" d="M0,7.8S4.668,4.593,4.609,0C4.609,0,.108-.34,0,7.8" transform="translate(305.342 185.945)" fill="#39b54a"/>
          <path id="Fill_102" data-name="Fill 102" d="M0,.682s5.315-1.953,9.024.752C9.024,1.434,6.7,5.3,0,.682" transform="translate(304.583 193.7)" fill="#39b54a"/>
          <path id="Fill_104" data-name="Fill 104" d="M0,6.673S4.509,4.181,4.859.018C4.859.018.812-.687,0,6.673" transform="translate(318.994 181.208)" fill="#39b54a"/>
          <path id="Fill_106" data-name="Fill 106" d="M0,.3S4.985-1,8.107,1.78c0,0-2.446,3.3-8.107-1.475" transform="translate(318.141 187.898)" fill="#39b54a"/>
          <path id="Fill_108" data-name="Fill 108" d="M0,4.679S4.093,3.437,5.1.118c0,0-3.163-1.274-5.1,4.561" transform="translate(334.278 179.659)" fill="#39b54a"/>
          <path id="Fill_110" data-name="Fill 110" d="M0,0S4.273-.191,6.327,2.6C6.327,2.6,3.77,4.86,0,0" transform="translate(333.53 184.449)" fill="#39b54a"/>
          <path id="Fill_112" data-name="Fill 112" d="M0,3.979S3.48,2.923,4.334.1C4.334.1,1.644-.983,0,3.979" transform="translate(346.906 179.626)" fill="#39b54a"/>
          <path id="Fill_114" data-name="Fill 114" d="M0,0S3.633-.163,5.379,2.213C5.379,2.213,3.205,4.131,0,0" transform="translate(346.27 183.699)" fill="#39b54a"/>
          <path id="Fill_116" data-name="Fill 116" d="M0,32.818S59.676-6.831,96.613,12.991,77.063-39.24,0,32.818" transform="translate(250.617 213.214)" fill="#8dc63f"/>
          <path id="Fill_118" data-name="Fill 118" d="M0,54.213S45.488,7.861,85.049,10.929C128.271,14.28,46-35.862,0,54.213" transform="translate(250.617 191.819)" fill="#8dc63f"/>
          <path id="Fill_120" data-name="Fill 120" d="M0,17.529S40.9-5.92,64.716,13.876,71.027-28.814,0,17.529" transform="translate(249.566 229.706)" fill="#8dc63f"/>
          <path id="Fill_122" data-name="Fill 122" d="M.509,51.456,0,51.118C.271,50.709,27.474,10.11,60.954,3.047c33.565-7.082,38.613.358,38.81.678l-.52.321.261-.16-.259.163c-.047-.073-5.182-7.363-38.166-.405C27.847,10.657.78,51.049.509,51.456" transform="translate(250.857 196.129)" fill="#fff"/>
          <path id="Fill_124" data-name="Fill 124" d="M.352,31.39,0,30.891C36.954,4.79,53.218,1.848,75.612.1c23.549-1.834,37.973,21.442,38.117,21.678l-.522.316C113.065,21.866,98.852-1.1,75.659.713,53.369,2.449,37.178,5.381.352,31.39" transform="translate(250.441 214.891)" fill="#fff"/>
          <path id="Fill_126" data-name="Fill 126" d="M.023,79.611s3.529-46.09,64.9-68.881C104.953-4.139-1.814-18.872.023,79.611" transform="translate(251.037 174.097)" fill="#8dc63f"/>
          <path id="Fill_128" data-name="Fill 128" d="M.606,61.97,0,61.888C2.117,45.973,20.734,22,33.361,10.817,46.9-1.182,78.118.025,78.432.04l-.027.609c-.311-.012-31.281-1.21-44.64,10.624C19.3,24.085,2.528,47.514.606,61.97" transform="translate(250.863 177.546)" fill="#fff"/>
          <path id="Fill_130" data-name="Fill 130" d="M55.761,17.953c-.027-.112-2.816-11.3-10.958-14.49C35.011-.368,12.016-1.068.309,5.808L0,5.28C11.854-1.682,35.122-.976,45.025,2.893c8.442,3.3,11.3,14.8,11.33,14.917Z" transform="translate(266.32 231.992)" fill="#fff"/>
          <path id="Fill_132" data-name="Fill 132" d="M0,9.875c.034-.016,1.462-.68,3.939-1.548C5.744,1.86,9.263,3.082,9.263,3.082,8.446,6.342,4.9,7.946,4.1,8.269A77.484,77.484,0,0,1,20.6,4.538c.172-.019.343-.031.516-.049,2.437-5.855,5.6-4.3,5.6-4.3-1.221,3.166-5.147,4.2-5.558,4.3a73.243,73.243,0,0,1,12.061-.293C36.627-1.133,39.464.935,39.464.935,37.827,3.658,34.176,4.128,33.371,4.2a67.822,67.822,0,0,1,8.085.976c1.1.2,2.187.435,3.268.69,3.531-4.455,5.9-2.353,5.9-2.353C49.006,5.7,45.954,5.919,44.981,5.934A64.529,64.529,0,0,1,56.324,9.811c3.634-3,5.191-.883,5.191-.883-1.628,1.435-4.021,1.168-4.906,1.006a65.608,65.608,0,0,1,8.379,4.581l-.008.012c3.1-2.562,4.425-.759,4.425-.759-1.693,1.492-4.347.824-4.449.8l-.05.079a5,5,0,0,1,2.23,3.4s-2.216.375-2.655-3.644c-.377-.238-.753-.477-1.13-.706A64.656,64.656,0,0,0,56.278,10a5.833,5.833,0,0,1,2.569,3.954s-2.569.429-3.11-4.193a64.62,64.62,0,0,0-11.079-3.7c1.148.5,3.4,1.745,4.084,4.041,0,0-2.931,1.158-4.729-4.19A68.215,68.215,0,0,0,32.486,4.335c.461.1,4.361,1.075,5.63,4.2,0,0-3.129,1.609-5.673-4.2A72.839,72.839,0,0,0,20.629,4.7,78.012,78.012,0,0,0,10.5,6.541c1.02-.023,4.724.077,6.731,2.634,0,0-2.7,2.531-6.96-2.573-2.777.7-5.087,1.451-6.8,2.068,1.02-.041,4.724,0,6.773,2.521,0,0-2.651,2.569-6.989-2.443C1.243,9.481.1,10.012.072,10.026Z" transform="translate(302.045 205.608)" fill="#39b54a"/>
          <path id="Fill_134" data-name="Fill 134" d="M5.412.1C4.429,3.767,0,5.267,0,5.267,1.911-1.178,5.412.1,5.412.1" transform="translate(313.017 206.556)" fill="#39b54a"/>
          <path id="Fill_136" data-name="Fill 136" d="M6.318,3.163S3.511,5.29,0,0C0,0,4.416.127,6.318,3.163" transform="translate(322.426 210.346)" fill="#39b54a"/>
          <path id="Fill_138" data-name="Fill 138" d="M1.117,15.961c.476,1.542,1.426,2.931,3.233,2.931H133.844V0H4.35C2.543,0,1.022,3.008.166,6.169a22.777,22.777,0,0,0,.95,9.792" transform="translate(167.695 242.255)" fill="#00b2e3"/>
          <path id="Fill_140" data-name="Fill 140" d="M42.222,18.976H0A67.95,67.95,0,0,0,25.368,0H42.222Z" transform="translate(186.021 242.249)" fill="#047bc1"/>
          <path id="Fill_142" data-name="Fill 142" d="M.11,14.793C.3,17.5.966,18.9,4.484,18.9H80.735V17.582H75.126L73.985,1.316H80.64V0H4.389C.871,0,.4,1.626.015,5.654c.19-.078-.19,3.717.095,9.139" transform="translate(224.607 242.326)" fill="#00b2e3"/>
          <path id="Fill_144" data-name="Fill 144" d="M.13,12.7c.1,2.323.782,3.563,3.91,3.563H77.332V0H4.04C.912,0,.521,1.395.13,4.88a55.412,55.412,0,0,0,0,7.822" transform="translate(226.139 243.642)" fill="#ddcabc"/>
          <path id="Fill_146" data-name="Fill 146" d="M0,7.565C.029,5.846.121,4.837.121,4.88.509,1.395.9,0,4,0H76.7V7.565Z" transform="translate(226.615 243.642)" fill="#efe0d3"/>
          <path id="Fill_148" data-name="Fill 148" d="M1.117,15.961c.475,1.542,1.426,2.931,3.233,2.931H133.844V0H4.35C2.543,0,1.022,3.007.166,6.168a22.775,22.775,0,0,0,.951,9.793" transform="translate(177.585 260.381)" fill="#ed037c"/>
          <g id="Group_152" data-name="Group 152" transform="translate(195.545 259.861)">
            <path id="Clip_151-2" data-name="Clip 151" d="M0,0H42.222V18.976H0Z" transform="translate(0.365 0.513)" fill="none"/>
            <g id="Group_152-2" data-name="Group 152" clip-path="url(#clip-path-3)">
              <path id="Fill_150" data-name="Fill 150" d="M42.222,18.976H0A67.947,67.947,0,0,0,25.368,0H42.222Z" transform="translate(0.365 0.513)" fill="#92278f"/>
            </g>
          </g>
          <g id="Group_155" data-name="Group 155" transform="translate(233.875 259.861)">
            <path id="Clip_154-2" data-name="Clip 154" d="M0,0H80.735V18.9H0Z" transform="translate(0.622 0.591)" fill="none"/>
            <g id="Group_155-2" data-name="Group 155" clip-path="url(#clip-path-4)">
              <path id="Fill_153" data-name="Fill 153" d="M.11,14.793C.3,17.5.966,18.9,4.483,18.9H80.735V17.582H75.126L73.985,1.317H80.64V0H4.389C.871,0,.395,1.626.016,5.654c.19-.078-.19,3.717.095,9.139" transform="translate(0.622 0.591)" fill="#ed037c"/>
            </g>
          </g>
          <path id="Fill_156" data-name="Fill 156" d="M.13,12.7c.1,2.324.782,3.563,3.91,3.563H77.332V0H4.04C.912,0,.522,1.394.13,4.88a55.416,55.416,0,0,0,0,7.822" transform="translate(236.028 261.769)" fill="#ddcabc"/>
          <path id="Fill_158" data-name="Fill 158" d="M0,7.564C.029,5.846.121,4.836.121,4.88.508,1.394.9,0,4,0H76.7V7.564Z" transform="translate(236.505 261.768)" fill="#efe0d3"/>
          <path id="Fill_160" data-name="Fill 160" d="M8.267,0H136.028V2.551h-1.319c-3.693,0-6.595,3.253-6.595,7.386V15.3c0,4.045,2.99,7.386,6.595,7.386h1.319v2.55H8.267C3.695,25.236,0,21.1,0,16V9.233C-.086,4.132,3.695,0,8.267,0" transform="translate(132.545 216.902)" fill="#cba52e"/>
          <path id="Fill_162" data-name="Fill 162" d="M6.682,0H62.957c-2.55,1.143-5.1,3.869-5.1,7.034v5.54c0,4.133,2.374,7.562,5.1,7.562H6.682C2.989,20.135,0,16.882,0,12.749V7.386C0,3.253,2.989,0,6.682,0" transform="translate(203.945 219.452)" fill="#efe0d3"/>
          <path id="Fill_164" data-name="Fill 164" d="M57.857,0V2.9c0,4.132,2.374,7.561,5.1,7.561H6.683C2.99,10.463,0,7.21,0,3.077V0Z" transform="translate(203.945 229.124)" fill="#e2d0c3"/>
          <path id="Fill_166" data-name="Fill 166" d="M8.353,0H67.09V2.551H9.145c-3.693,0-6.682,3.253-6.682,7.386V15.3c0,4.045,2.989,7.386,6.682,7.386H67.09v2.55H8.353C3.693,25.236,0,21.1,0,16V9.233C0,4.132,3.693,0,8.353,0" transform="translate(201.483 216.902)" fill="#fcaf17"/>
          <path id="Fill_168" data-name="Fill 168" d="M8.267,0H36.228a25.668,25.668,0,0,0,4.924,10.9,71.87,71.87,0,0,0,14.42,14.333H8.267C3.695,25.236,0,21.1,0,16V9.233C-.086,4.132,3.695,0,8.267,0" transform="translate(132.545 216.902)" fill="#fcaf17"/>
          <path id="Clip_171-2" data-name="Clip 171" d="M0,279.255H472.453V0H0Z" transform="translate(0 0.095)" fill="none"/>
          <g id="Mask_Group_5" data-name="Mask Group 5" clip-path="url(#clip-path-5)">
            <path id="Fill_170" data-name="Fill 170" d="M0,1.649H83.162V0H0Z" transform="translate(133.069 214.859)"/>
            <path id="Fill_172" data-name="Fill 172" d="M52.2,0H7.877S8.609,21.431,0,23.721H60.264C51.472,21.431,52.2,0,52.2,0" transform="translate(144.701 191.138)" fill="#bac7db"/>
            <path id="Fill_173" data-name="Fill 173" d="M214.132,159.912H18.043A18.138,18.138,0,0,1,0,141.869V18.043A18.137,18.137,0,0,1,18.043,0H214.132a18.136,18.136,0,0,1,18.042,18.043V141.869a18.078,18.078,0,0,1-18.042,18.043" transform="translate(58.608 31.41)"/>
            <path id="Fill_174" data-name="Fill 174" d="M0,.092V15.753a5.745,5.745,0,0,0,5.77,5.77H223.748a5.746,5.746,0,0,0,5.77-5.77V0H0Z" transform="translate(59.982 169.706)" fill="#bac7db"/>
            <path id="Fill_175" data-name="Fill 175" d="M225.122,24.179H7.143A7.151,7.151,0,0,1,0,17.036V0H232.267V17.036A7.152,7.152,0,0,1,225.122,24.179ZM1.374,1.282V17.036a5.745,5.745,0,0,0,5.769,5.769H225.122a5.745,5.745,0,0,0,5.77-5.769V1.282Z" transform="translate(58.608 168.424)"/>
            <path id="Fill_176" data-name="Fill 176" d="M0,118.7H212.941V0H0Z" transform="translate(68.225 41.118)" fill="#dfe7f3"/>
          </g>
        </g>
        <g id="Group_180" data-name="Group 180" transform="translate(86.404 99.302)">
          <path id="Clip_179-2" data-name="Clip 179" d="M17.585.21c-6.595,1.1-13.921,8.151-13.1,15.2h0s-.917-.091-.917-2.655h0S0,13.674,0,17.062H0c0,3.389,6.5,3.205,7.693,3.3h0C8.7,20.177,49,19.81,49,19.81H61.638s3.114-.457-1.832-.824h0l-5.037-.457a2.445,2.445,0,0,0-.641-3.023h0a2.5,2.5,0,0,0-1.93-.437h0c-.7.075-1.25.15-1.825-1.211h0c-.825-2.015-3.115-7.6-9.068-7.876h0c-6.137-.275-9.25,2.931-9.25,2.931h0a5.225,5.225,0,0,1,1.831-2.29h0a13.656,13.656,0,0,1-4.121-2.656h0A13.164,13.164,0,0,0,20.192,0h0a16.77,16.77,0,0,0-2.607.21" transform="translate(0.521 0.423)" fill="none"/>
          <g id="Group_180-2" data-name="Group 180" clip-path="url(#clip-path-6)">
            <path id="Fill_178" data-name="Fill 178" d="M17.585.21c-6.595,1.1-13.921,8.151-13.1,15.2h0s-.917-.091-.917-2.655h0S0,13.674,0,17.062H0c0,3.389,6.5,3.205,7.693,3.3h0C8.7,20.177,49,19.81,49,19.81H61.638s3.114-.457-1.832-.824h0l-5.037-.457a2.445,2.445,0,0,0-.641-3.023h0a2.5,2.5,0,0,0-1.93-.437h0c-.7.075-1.25.15-1.825-1.211h0c-.825-2.015-3.115-7.6-9.068-7.876h0c-6.137-.275-9.25,2.931-9.25,2.931h0a5.225,5.225,0,0,1,1.831-2.29h0a13.656,13.656,0,0,1-4.121-2.656h0A13.164,13.164,0,0,0,20.192,0h0a16.77,16.77,0,0,0-2.607.21" transform="translate(0.521 0.423)" fill="none"/>
          </g>
        </g>
        <g id="Group_183" data-name="Group 183" transform="translate(118.886 74.615)">
          <path id="Clip_182-2" data-name="Clip 182" d="M12.072,5.129a6.2,6.2,0,0,0-3.023-.641h0C6.485,4.579,5.477,7.053,5.2,7.876h0c-.262.576-.494.554-.8.531h0a1.193,1.193,0,0,0-.851.2h0a.945.945,0,0,0-.274,1.282h0l-2.107.183c-2.106.184-.732.366-.732.366h5.4s10.166.092,15.112.183h0a2.724,2.724,0,0,0,1.373.458H34.6a3.277,3.277,0,0,0,2.473-1.374h0a2,2,0,0,1,.275-.457h1.282A2.452,2.452,0,0,0,40.556,8.06h0a.875.875,0,0,0-.825-1.374h-5.5a4.6,4.6,0,0,0-4.854-4.121h0a6.367,6.367,0,0,0-5.037,2.564h0C23.246,2.381,21.6,0,18.3,0h0c-3.389,0-6.136,2.381-6.228,5.129" transform="translate(0.295 0.133)" fill="none"/>
          <g id="Group_183-2" data-name="Group 183" clip-path="url(#clip-path-7)">
            <path id="Fill_181" data-name="Fill 181" d="M12.072,5.129a6.2,6.2,0,0,0-3.023-.641h0C6.485,4.579,5.477,7.053,5.2,7.876h0c-.262.576-.494.554-.8.531h0a1.193,1.193,0,0,0-.851.2h0a.945.945,0,0,0-.274,1.282h0l-2.107.183c-2.106.184-.732.366-.732.366h5.4s10.166.092,15.112.183h0a2.724,2.724,0,0,0,1.373.458H34.6a3.277,3.277,0,0,0,2.473-1.374h0a2,2,0,0,1,.275-.457h1.282A2.452,2.452,0,0,0,40.556,8.06h0a.875.875,0,0,0-.825-1.374h-5.5a4.6,4.6,0,0,0-4.854-4.121h0a6.367,6.367,0,0,0-5.037,2.564h0C23.246,2.381,21.6,0,18.3,0h0c-3.389,0-6.136,2.381-6.228,5.129" transform="translate(0.295 0.133)" fill="none"/>
          </g>
        </g>
        <g id="Group_409" data-name="Group 409" transform="translate(0 0.555)">
          <path id="Fill_184" data-name="Fill 184" d="M.824,1.648A.824.824,0,1,1,1.65.823.825.825,0,0,1,.824,1.648Zm0-1.465A.627.627,0,0,0,.184.823a.627.627,0,0,0,.641.642A.627.627,0,0,0,1.465.823.627.627,0,0,0,.824.183Z" transform="translate(175.199 35.073)" fill="gray"/>
          <path id="Fill_186" data-name="Fill 186" d="M1.1.55a.591.591,0,0,1-.55.55A.59.59,0,0,1,0,.55.59.59,0,0,1,.549,0c.275.092.55.275.55.55" transform="translate(172.544 35.348)" fill="gray"/>
          <path id="Fill_188" data-name="Fill 188" d="M46.149,10H0V0H46.149a7.223,7.223,0,0,1,2.07,5,7.231,7.231,0,0,1-2.07,5" transform="translate(91.005 229.064)" fill="#f15a22"/>
          <path id="Clip_191-2" data-name="Clip 191" d="M0,279.255H472.453V0H0Z" transform="translate(0 0.095)" fill="none"/>
          <g id="Group_409-2" data-name="Group 409" clip-path="url(#clip-path-5)">
            <path id="Fill_190" data-name="Fill 190" d="M0,7.274H45.632V0H0Z" transform="translate(91.005 230.428)" fill="#efe0d3"/>
            <path id="Fill_192" data-name="Fill 192" d="M0,10H48.1V0H0Z" transform="translate(42.902 229.065)" fill="#ed1c24"/>
            <path id="Fill_193" data-name="Fill 193" d="M0,7.274H48.1V0H0Z" transform="translate(42.902 230.428)" fill="#e2d0c3"/>
            <path id="Fill_194" data-name="Fill 194" d="M0,0V7.274A5.485,5.485,0,0,0,1.416,3.6,5.478,5.478,0,0,0,0,0" transform="translate(136.637 230.428)" fill="#ed1c24"/>
            <path id="Fill_195" data-name="Fill 195" d="M46.149,10H0V0H46.149a7.227,7.227,0,0,1,2.07,5,7.231,7.231,0,0,1-2.07,5" transform="translate(87.349 219.061)" fill="#ba41aa"/>
            <path id="Fill_196" data-name="Fill 196" d="M0,7.274H45.632V0H0Z" transform="translate(87.349 220.426)" fill="#efe0d3"/>
            <path id="Fill_197" data-name="Fill 197" d="M0,10H48.1V0H0Z" transform="translate(39.245 219.061)" fill="#872f7c"/>
            <path id="Fill_198" data-name="Fill 198" d="M0,7.274H48.1V0H0Z" transform="translate(39.245 220.426)" fill="#e2d0c3"/>
            <path id="Fill_199" data-name="Fill 199" d="M0,0V7.274A5.481,5.481,0,0,0,1.416,3.6,5.479,5.479,0,0,0,0,0" transform="translate(132.981 220.425)" fill="#872f7c"/>
            <path id="Fill_200" data-name="Fill 200" d="M46.149,16.006H0V0H46.149a15.315,15.315,0,0,1,2.069,8,15.315,15.315,0,0,1-2.069,8" transform="translate(101.89 239.066)" fill="#3267b3"/>
            <path id="Fill_201" data-name="Fill 201" d="M0,12.866H45.632V0H0Z" transform="translate(101.89 240.636)" fill="#efe0d3"/>
            <path id="Fill_202" data-name="Fill 202" d="M0,16.006H48.1V0H0Z" transform="translate(53.787 239.066)" fill="#0b3573"/>
            <path id="Fill_203" data-name="Fill 203" d="M0,12.866H48.1V0H0Z" transform="translate(53.787 240.636)" fill="#e2d0c3"/>
            <path id="Fill_204" data-name="Fill 204" d="M0,0V12.866a14.2,14.2,0,0,0,1.416-6.5A14.124,14.124,0,0,0,0,0" transform="translate(147.522 240.636)" fill="#0b3573"/>
            <path id="Fill_205" data-name="Fill 205" d="M46.149,16.006H0V0H46.149a15.309,15.309,0,0,1,2.07,8,15.3,15.3,0,0,1-2.07,8" transform="translate(77.283 203.055)" fill="#39b54a"/>
            <path id="Fill_206" data-name="Fill 206" d="M0,12.867H45.632V0H0Z" transform="translate(77.283 204.625)" fill="#efe0d3"/>
            <path id="Fill_207" data-name="Fill 207" d="M0,16.006H48.1V0H0Z" transform="translate(29.179 203.055)" fill="#25822d"/>
            <path id="Fill_208" data-name="Fill 208" d="M0,12.867H48.1V0H0Z" transform="translate(29.179 204.625)" fill="#e2d0c3"/>
            <path id="Fill_209" data-name="Fill 209" d="M0,0V12.867a14.2,14.2,0,0,0,1.416-6.5A14.131,14.131,0,0,0,0,0" transform="translate(122.914 204.625)" fill="#25822d"/>
            <path id="Fill_210" data-name="Fill 210" d="M3.578,9.145,1.907,7.829,0,9.145V0H3.578Z" transform="translate(131.796 236.962)" fill="#ba41aa"/>
            <path id="Fill_211" data-name="Fill 211" d="M0,44.556H35.348V0H0Z" transform="translate(32.132 158.499)" fill="#92278f"/>
            <path id="Fill_212" data-name="Fill 212" d="M0,43.167H6.026V0H0Z" transform="translate(32.993 159.888)" fill="#efe0d3"/>
            <path id="Fill_213" data-name="Fill 213" d="M0,44.556H1.722V0H0Z" transform="translate(38.159 158.499)" fill="#ed037c"/>
            <path id="Fill_214" data-name="Fill 214" d="M0,44.556H1.722V0H0Z" transform="translate(32.132 158.499)" fill="#ed037c"/>
            <path id="Fill_215" data-name="Fill 215" d="M0,12.754H40.573a3.611,3.611,0,0,0,3.611-3.611V3.611A3.611,3.611,0,0,0,40.573,0H0Z" transform="translate(83.888 190.533)" fill="#00b2e3"/>
            <path id="Fill_216" data-name="Fill 216" d="M1.158,1.46v9.912H0v1.382H40.573a3.611,3.611,0,0,0,3.611-3.611V3.611A3.611,3.611,0,0,0,40.573,0H0V1.46Z" transform="translate(48.647 190.533)" fill="#047bc1"/>
            <path id="Fill_217" data-name="Fill 217" d="M39.287,0H0V9.912H39.287a1.627,1.627,0,0,0,1.627-1.628V1.628A1.627,1.627,0,0,0,39.287,0" transform="translate(49.805 191.993)" fill="#efe0d3"/>
            <path id="Fill_218" data-name="Fill 218" d="M16.548,18.1H1.557A1.557,1.557,0,0,1,0,16.548V1.557A1.557,1.557,0,0,1,1.557,0H16.548A1.557,1.557,0,0,1,18.1,1.557V16.548A1.557,1.557,0,0,1,16.548,18.1" transform="translate(226.511 62.563)" fill="#bdd3f0"/>
            <path id="Fill_219" data-name="Fill 219" d="M16.548,18.1H1.557A1.557,1.557,0,0,1,0,16.548V1.557A1.557,1.557,0,0,1,1.557,0H16.548A1.556,1.556,0,0,1,18.1,1.557V16.548A1.557,1.557,0,0,1,16.548,18.1" transform="translate(220.251 57.699)" fill="#fff"/>
            <path id="Fill_220" data-name="Fill 220" d="M0,9.952H3.39V0H0Z" transform="translate(89.756 61.394)" fill="#fff"/>
            <path id="Fill_221" data-name="Fill 221" d="M0,.765H5.749V0H0Z" transform="translate(88.576 70.581)" fill="#fff"/>
            <path id="Fill_222" data-name="Fill 222" d="M0,.765H5.749V0H0Z" transform="translate(88.576 61.36)" fill="#fff"/>
            <path id="Fill_223" data-name="Fill 223" d="M3.506,1.753A1.753,1.753,0,1,1,1.753,0,1.753,1.753,0,0,1,3.506,1.753" transform="translate(89.698 56.218)" fill="#fff"/>
            <path id="Fill_224" data-name="Fill 224" d="M11.963,23.925A11.962,11.962,0,1,1,23.926,11.962,11.976,11.976,0,0,1,11.963,23.925Zm0-22.33A10.368,10.368,0,1,0,22.33,11.962,10.379,10.379,0,0,0,11.963,1.595Z" transform="translate(79.488 51.82)" fill="#fff"/>
            <path id="Fill_225" data-name="Fill 225" d="M35.905,1H33.754a.5.5,0,0,1-.49-.5.5.5,0,0,1,.49-.5h2.152a.5.5,0,0,1,.49.5A.5.5,0,0,1,35.905,1ZM31.8,1H25.731a.5.5,0,0,1-.49-.5.5.5,0,0,1,.49-.5H31.8a.5.5,0,0,1,.489.5A.5.5,0,0,1,31.8,1ZM22.991,1H20.84a.5.5,0,0,1-.49-.5.5.5,0,0,1,.49-.5h2.152a.5.5,0,0,1,.489.5A.5.5,0,0,1,22.991,1ZM18.883,1H12.816a.5.5,0,0,1-.489-.5.5.5,0,0,1,.489-.5h6.067a.5.5,0,0,1,.489.5A.5.5,0,0,1,18.883,1ZM10.077,1H7.925a.5.5,0,0,1-.49-.5.5.5,0,0,1,.49-.5h2.152a.5.5,0,0,1,.49.5A.5.5,0,0,1,10.077,1ZM5.969,1H.49A.5.5,0,0,1,0,.5.5.5,0,0,1,.49,0H5.969a.5.5,0,0,1,.489.5A.5.5,0,0,1,5.969,1Z" transform="translate(108.733 74.573)" fill="#fff"/>
            <path id="Fill_226" data-name="Fill 226" d="M38.449,1H32.774a.5.5,0,0,1-.49-.5.5.5,0,0,1,.49-.5h5.674a.5.5,0,0,1,.49.5A.5.5,0,0,1,38.449,1ZM30.035,1H21.817a.5.5,0,0,1-.489-.5.5.5,0,0,1,.489-.5h8.218a.5.5,0,0,1,.489.5A.5.5,0,0,1,30.035,1ZM19.077,1H10.859a.5.5,0,0,1-.489-.5.5.5,0,0,1,.489-.5h8.218a.5.5,0,0,1,.49.5A.5.5,0,0,1,19.077,1ZM8.12,1H.49A.5.5,0,0,1,0,.5.5.5,0,0,1,.49,0H8.12a.5.5,0,0,1,.49.5A.5.5,0,0,1,8.12,1Z" transform="translate(108.733 70.061)" fill="#fff"/>
            <path id="Fill_227" data-name="Fill 227" d="M37.079,1H31.014a.5.5,0,0,1-.1-.01.5.5,0,0,1-.1.01H28.666a.5.5,0,0,1-.49-.5.5.5,0,0,1,.49-.5h2.152a.5.5,0,0,1,.1.01.5.5,0,0,1,.1-.01h6.065a.5.5,0,0,1,.49.5A.5.5,0,0,1,37.079,1ZM26.709,1H20.643a.487.487,0,0,0-.2,0H18.3a.5.5,0,0,1-.489-.5A.5.5,0,0,1,18.3,0h2.153a.5.5,0,0,1,.1.01.5.5,0,0,1,.1-.01h6.066A.5.5,0,0,1,27.2.5.5.5,0,0,1,26.709,1ZM16.339,1H10.273a.49.49,0,0,1-.1-.01.5.5,0,0,1-.1.01H7.925a.5.5,0,0,1-.49-.5.5.5,0,0,1,.49-.5h2.152a.5.5,0,0,1,.1.01.491.491,0,0,1,.1-.01h6.066a.5.5,0,0,1,.49.5A.5.5,0,0,1,16.339,1ZM5.969,1H.49A.5.5,0,0,1,0,.5.5.5,0,0,1,.49,0H5.969a.5.5,0,0,1,.489.5A.5.5,0,0,1,5.969,1Z" transform="translate(108.733 65.549)" fill="#fff"/>
            <path id="Fill_228" data-name="Fill 228" d="M35.905,1H33.754a.5.5,0,0,1-.49-.5.5.5,0,0,1,.49-.5h2.152a.5.5,0,0,1,.49.5A.5.5,0,0,1,35.905,1ZM31.8,1H25.731a.5.5,0,0,1-.49-.5.5.5,0,0,1,.49-.5H31.8a.5.5,0,0,1,.489.5A.5.5,0,0,1,31.8,1ZM22.991,1H20.84a.5.5,0,0,1-.49-.5.5.5,0,0,1,.49-.5h2.152a.5.5,0,0,1,.489.5A.5.5,0,0,1,22.991,1ZM18.883,1H12.816a.5.5,0,0,1-.489-.5.5.5,0,0,1,.489-.5h6.067a.5.5,0,0,1,.489.5A.5.5,0,0,1,18.883,1ZM10.077,1H7.925a.5.5,0,0,1-.49-.5.5.5,0,0,1,.49-.5h2.152a.5.5,0,0,1,.49.5A.5.5,0,0,1,10.077,1ZM5.969,1H.49A.5.5,0,0,1,0,.5.5.5,0,0,1,.49,0H5.969a.5.5,0,0,1,.489.5A.5.5,0,0,1,5.969,1Z" transform="translate(108.733 61.036)" fill="#fff"/>
            <path id="Fill_229" data-name="Fill 229" d="M38.449,1h-.978a.5.5,0,0,1-.49-.5.5.5,0,0,1,.49-.5h.978a.5.5,0,0,1,.49.5A.5.5,0,0,1,38.449,1ZM28.861,1H26.709a.5.5,0,0,1-.49-.5.5.5,0,0,1,.49-.5h2.152a.5.5,0,0,1,.49.5A.5.5,0,0,1,28.861,1ZM24.753,1H18.687A.5.5,0,0,1,18.2.5a.5.5,0,0,1,.49-.5h6.066a.5.5,0,0,1,.489.5A.5.5,0,0,1,24.753,1ZM10.077,1H7.925a.5.5,0,0,1-.49-.5.5.5,0,0,1,.49-.5h2.152a.5.5,0,0,1,.49.5A.5.5,0,0,1,10.077,1ZM5.969,1H.49A.5.5,0,0,1,0,.5.5.5,0,0,1,.49,0H5.969a.5.5,0,0,1,.489.5A.5.5,0,0,1,5.969,1Z" transform="translate(108.733 56.524)" fill="#fff"/>
            <path id="Fill_230" data-name="Fill 230" d="M38.449,1H35.123a.5.5,0,0,1-.489-.5.494.494,0,0,1,.489-.5h3.326a.5.5,0,0,1,.49.5A.5.5,0,0,1,38.449,1ZM32.383,1H26.318a.5.5,0,0,1-.49-.5.5.5,0,0,1,.49-.5h6.065a.5.5,0,0,1,.49.5A.5.5,0,0,1,32.383,1Zm-8.8,0H17.513a.5.5,0,0,1-.489-.5.494.494,0,0,1,.489-.5h6.065a.5.5,0,0,1,.49.5A.5.5,0,0,1,23.578,1Zm-8.8,0H8.707A.5.5,0,0,1,8.219.5.494.494,0,0,1,8.707,0h6.066a.5.5,0,0,1,.49.5A.5.5,0,0,1,14.773,1Zm-8.8,0H.49A.5.5,0,0,1,0,.5.5.5,0,0,1,.49,0H5.969a.494.494,0,0,1,.489.5A.5.5,0,0,1,5.969,1Z" transform="translate(108.733 52.012)" fill="#fff"/>
            <path id="Fill_231" data-name="Fill 231" d="M63.427,11.261V41.969A11.258,11.258,0,0,1,52.166,53.231h-40.9A11.258,11.258,0,0,1,0,41.969V11.261A11.27,11.27,0,0,1,11.261,0h40.9A11.27,11.27,0,0,1,63.427,11.261" transform="translate(178.283 90.513)" fill="#fff"/>
            <path id="Fill_232" data-name="Fill 232" d="M2.916.263,14.682,7.057a1.944,1.944,0,0,1,0,3.367L2.916,17.218A1.944,1.944,0,0,1,0,15.534V1.946A1.944,1.944,0,0,1,2.916.263" transform="translate(203.648 114.656)" fill="#bdd3f0"/>
            <path id="Fill_233" data-name="Fill 233" d="M63.427,11.261v6.923H0V11.261A11.27,11.27,0,0,1,11.261,0h40.9A11.27,11.27,0,0,1,63.427,11.261" transform="translate(178.283 90.513)" fill="#bdd3f0"/>
            <path id="Fill_234" data-name="Fill 234" d="M6.938,0,0,12.3l6.265.669,3.257-5.41L9.341,1.365Z" transform="translate(251.857 157.105)" fill="#e8e8e8"/>
            <path id="Fill_235" data-name="Fill 235" d="M6.439,0l5.8,10.785,17.287,26.26-.859.352-1.357,2.3L5.764,16.7,0,2.64Z" transform="translate(260.905 207.813)" fill="#f59c71"/>
            <path id="Fill_236" data-name="Fill 236" d="M11.017,5.16,9.073.42A.676.676,0,0,0,8.19.051L6.67.674,3.931,5.308.654,7.611A1.539,1.539,0,0,0,.115,9.453l.062.152L5.242,7.529A2.545,2.545,0,0,0,6.815,5L7.941,3.162,9.729,5.688Z" transform="translate(282.008 244.902)" fill="#191c3c"/>
            <path id="Fill_237" data-name="Fill 237" d="M5.026,0,2.718,14.285,0,44.482l1.95-.906.955.207L9.51,18.865,16.283,2.431Z" transform="translate(248.273 210.878)" fill="#f59c71"/>
            <path id="Fill_238" data-name="Fill 238" d="M10.726,5.769l1.013-4.69a.634.634,0,0,0-.486-.754L9.749,0,5.178,2.125l-3.752.04A1.441,1.441,0,0,0,.032,3.3L0,3.452,5.012,4.535A2.384,2.384,0,0,0,7.566,3.419l1.845-.824.041,2.9Z" transform="translate(239.836 254.317)" fill="#191c3c"/>
            <path id="Fill_239" data-name="Fill 239" d="M25.623,0A27.022,27.022,0,0,1,34.93,1.572a23.949,23.949,0,0,1,0,5.584C34.463,11.072,33.168,13.5,29,22.338c-1.074,2.276-1.933,4.117-2.449,5.227q1.59,4.689,3.179,9.379a39.608,39.608,0,0,1-12.712,2.844A39.856,39.856,0,0,1,0,36.944l2.861-9.379Q4.842,23.138,7.184,18.5c3.124-6.163,6.367-11.8,9.6-16.927A27.019,27.019,0,0,1,25.623,0" transform="translate(247.029 186.476)" fill="#231e3b"/>
            <path id="Fill_240" data-name="Fill 240" d="M24.531,34.8a22.048,22.048,0,0,1-4.19,1.892c-7.294,2.41-13.984.333-16.995-.843Q4.51,32.48,5.674,29.106,4.7,22.829,3.721,16.552C1.443,15.971.6,15.022.246,14.262c-.833-1.808.7-3.486.937-6.785A12.6,12.6,0,0,0,.426,2.294a16,16,0,0,1,5.167-2,16.731,16.731,0,0,1,10.09,1.274,41.832,41.832,0,0,1,3.259,8.114,41.944,41.944,0,0,1,1.592,11.531l4,13.593" transform="translate(258.37 154.811)" fill="#fff"/>
            <path id="Fill_241" data-name="Fill 241" d="M12,0A50.3,50.3,0,0,1,9.44,7.155,50.955,50.955,0,0,1,.715,20.533a13.967,13.967,0,0,1-.7-5.061C.5,6,10.927.541,12,0" transform="translate(263.212 165.712)" fill="#e8e8e8"/>
            <path id="Fill_242" data-name="Fill 242" d="M0,14.658,5.468,0,7.911,1.628,0,14.658" transform="translate(263.927 159.08)" fill="#e8e8e8"/>
            <path id="Fill_243" data-name="Fill 243" d="M0,6.906A17.381,17.381,0,0,0,3.668,8.149a17.319,17.319,0,0,0,2.786.375l.889,5q-.06,3.764-.12,7.529l6.119-7.541q-.446-2.884-.893-5.768l1.529-4.251L12.514,0Z" transform="translate(255.182 142.191)" fill="#f59c71"/>
            <path id="Fill_244" data-name="Fill 244" d="M0,2.361A16.482,16.482,0,0,0,3.1,3.488a16.435,16.435,0,0,0,3.355.492L10.613,0Z" transform="translate(255.182 146.735)" fill="#d4794f"/>
            <path id="Fill_245" data-name="Fill 245" d="M13.528,4.52A9.826,9.826,0,0,1,12.27,7.642,10.2,10.2,0,0,1,7.7,11.536a14.059,14.059,0,0,1-3.318.733A14.124,14.124,0,0,1,0,12,10.282,10.282,0,0,1,1.13,8.128L.4,7.139,2.263,5.182a21.366,21.366,0,0,1,1.364-2.13A8.933,8.933,0,0,1,5.565.814,5.168,5.168,0,0,1,10.448.441a5.674,5.674,0,0,1,3.08,4.079" transform="translate(255.183 137.096)" fill="#faad89"/>
            <path id="Fill_246" data-name="Fill 246" d="M.669,3.236H15.6V0H.669A2.338,2.338,0,0,0,0,1.618,2.34,2.34,0,0,0,.669,3.236" transform="translate(233.557 183.589)" fill="#f25ae5"/>
            <path id="Fill_247" data-name="Fill 247" d="M0,2.353H14.764V0H0Z" transform="translate(234.394 184.03)" fill="#efe0d3"/>
            <path id="Fill_248" data-name="Fill 248" d="M0,3.236H15.563V0H0Z" transform="translate(249.157 183.589)" fill="#c441ba"/>
            <path id="Fill_249" data-name="Fill 249" d="M0,2.353H15.563V0H0Z" transform="translate(249.157 184.03)" fill="#e2d0c3"/>
            <path id="Fill_250" data-name="Fill 250" d="M.554,0V2.353A1.774,1.774,0,0,1,.1,1.165,1.768,1.768,0,0,1,.554,0" transform="translate(233.84 184.03)" fill="#c441ba"/>
            <path id="Fill_251" data-name="Fill 251" d="M.669,3.236H15.6V0H.669A2.339,2.339,0,0,0,0,1.618,2.338,2.338,0,0,0,.669,3.236" transform="translate(234.74 180.353)" fill="#ba41aa"/>
            <path id="Fill_252" data-name="Fill 252" d="M0,2.353H14.764V0H0Z" transform="translate(235.577 180.794)" fill="#efe0d3"/>
            <path id="Fill_253" data-name="Fill 253" d="M0,3.236H15.562V0H0Z" transform="translate(250.341 180.352)" fill="#872f7c"/>
            <path id="Fill_254" data-name="Fill 254" d="M0,2.353H15.562V0H0Z" transform="translate(250.341 180.794)" fill="#e2d0c3"/>
            <path id="Fill_255" data-name="Fill 255" d="M.554,0V2.353A1.772,1.772,0,0,1,.1,1.165,1.77,1.77,0,0,1,.554,0" transform="translate(235.023 180.794)" fill="#872f7c"/>
            <path id="Fill_256" data-name="Fill 256" d="M.67,5.178H15.6V0H.67A4.953,4.953,0,0,0,0,2.59,4.952,4.952,0,0,0,.67,5.178" transform="translate(230.035 186.825)" fill="#3267b3"/>
            <path id="Fill_257" data-name="Fill 257" d="M0,4.163H14.763V0H0Z" transform="translate(230.873 187.332)" fill="#efe0d3"/>
            <path id="Fill_258" data-name="Fill 258" d="M0,5.178H15.563V0H0Z" transform="translate(245.635 186.824)" fill="#0b3573"/>
            <path id="Fill_259" data-name="Fill 259" d="M0,4.163H15.563V0H0Z" transform="translate(245.635 187.332)" fill="#e2d0c3"/>
            <path id="Fill_260" data-name="Fill 260" d="M.554,0V4.163A4.585,4.585,0,0,1,.1,2.061,4.572,4.572,0,0,1,.554,0" transform="translate(230.319 187.332)" fill="#0b3573"/>
            <path id="Fill_261" data-name="Fill 261" d="M.67,5.178H15.6V0H.67A4.951,4.951,0,0,0,0,2.59,4.955,4.955,0,0,0,.67,5.178" transform="translate(237.997 175.174)" fill="#3267b3"/>
            <path id="Fill_262" data-name="Fill 262" d="M0,4.163H14.764V0H0Z" transform="translate(238.833 175.681)" fill="#efe0d3"/>
            <path id="Fill_263" data-name="Fill 263" d="M0,5.178H15.563V0H0Z" transform="translate(253.597 175.174)" fill="#0b3573"/>
            <path id="Fill_264" data-name="Fill 264" d="M0,4.163H15.563V0H0Z" transform="translate(253.597 175.681)" fill="#e2d0c3"/>
            <path id="Fill_265" data-name="Fill 265" d="M.554,0V4.163A4.6,4.6,0,0,1,.1,2.061,4.566,4.566,0,0,1,.554,0" transform="translate(238.28 175.682)" fill="#0b3573"/>
            <path id="Fill_266" data-name="Fill 266" d="M0,2.959l.541-.426.617.426V0H0Z" transform="translate(234.803 186.144)" fill="#ba41aa"/>
            <path id="Fill_267" data-name="Fill 267" d="M.27.377v1.1H0v.378H14.6a.468.468,0,0,0,.468-.468V.468A.468.468,0,0,0,14.6,0H0V.377Z" transform="translate(235.537 171.456)" fill="#047bc1"/>
            <path id="Fill_268" data-name="Fill 268" d="M0,1.1H14.225V0H0Z" transform="translate(235.807 171.834)" fill="#e2d0c3"/>
            <path id="Fill_269" data-name="Fill 269" d="M0,1.859H14.6a.467.467,0,0,0,.467-.468V.468A.467.467,0,0,0,14.6,0H0Z" transform="translate(249.87 171.456)" fill="#92278f"/>
            <path id="Fill_270" data-name="Fill 270" d="M14.514,0a.2.2,0,0,1,.2.2V.9a.2.2,0,0,1-.2.2H0V0Z" transform="translate(249.87 171.833)" fill="#efe0d3"/>
            <path id="Fill_271" data-name="Fill 271" d="M14.8.377v1.1h.27v.378H.468A.469.469,0,0,1,0,1.39V.468A.468.468,0,0,1,.468,0h14.6V.377Z" transform="translate(248.199 173.315)" fill="#f25ae5"/>
            <path id="Fill_272" data-name="Fill 272" d="M0,1.1H14.225V0H0Z" transform="translate(248.772 173.692)" fill="#efe0d3"/>
            <path id="Fill_273" data-name="Fill 273" d="M15.069,1.859H.468A.469.469,0,0,1,0,1.391V.468A.468.468,0,0,1,.468,0h14.6Z" transform="translate(233.865 173.315)" fill="#c441ba"/>
            <path id="Fill_274" data-name="Fill 274" d="M.2,0H14.718V1.1H.2A.2.2,0,0,1,0,.9V.2A.2.2,0,0,1,.2,0" transform="translate(234.216 173.693)" fill="#e2d0c3"/>
            <path id="Fill_275" data-name="Fill 275" d="M14.295,4.127H1.169A1.169,1.169,0,0,1,0,2.958V1.168A1.169,1.169,0,0,1,1.169,0H14.295Z" transform="translate(237.165 167.329)" fill="#f15a22"/>
            <path id="Fill_276" data-name="Fill 276" d="M13.92.472V3.68h.375v.447H1.168A1.169,1.169,0,0,1,0,2.958V1.168A1.168,1.168,0,0,1,1.168,0H14.295V.472Z" transform="translate(248.567 167.329)" fill="#db382a"/>
            <path id="Fill_277" data-name="Fill 277" d="M.526,0h12.71V3.207H.526A.527.527,0,0,1,0,2.68V.527A.527.527,0,0,1,.526,0" transform="translate(249.25 167.801)" fill="#efe0d3"/>
            <path id="Fill_278" data-name="Fill 278" d="M6.637,1.7q-.631,1.025-1.265,2.05a2.449,2.449,0,0,1-1.352.568c-.466.032-.577-.123-1.266-.131-.737-.008-.969.165-1.177,0-.166-.131-.3-.461-.044-1.4a2.459,2.459,0,0,1-.7.479c-.265.121-.761.288-.829.175-.056-.094.268-.4.916-1,.834-.778,1.251-1.166,1.266-1.178A7.558,7.558,0,0,1,4.63,0L6.637,1.7" transform="translate(249.146 189.531)" fill="#faad89"/>
            <path id="Fill_279" data-name="Fill 279" d="M24.415,4.843q-1.743,3.034-3.71,6.131a161.228,161.228,0,0,1-18.1,23.378,1.94,1.94,0,0,1-1.724-.041A1.88,1.88,0,0,1,.041,32.3Q9.524,16.91,19.007,1.516a3.369,3.369,0,0,1,3.587-1.4,3.5,3.5,0,0,1,1.822,4.726" transform="translate(253.504 157.126)" fill="#fff"/>
            <path id="Fill_280" data-name="Fill 280" d="M0,3.732A7.774,7.774,0,0,1,2.3,1.327,8.041,8.041,0,0,1,9.786.612c2.167.965,1.654,2.174,4.633,4.846,3.2,2.868,4.741,2.328,5.987,4.571,1.262,2.272-.023,3.364,1.039,5.813,1.256,2.9,3.639,2.716,6.94,5.544,2.529,2.167,3.8,4.871,6.353,10.28,1.951,4.14,2.957,6.342,2.948,9.552-.006,2.043-.013,4.375-1.53,6.383-1.729,2.289-3.785,2-5.717,4.915-1.047,1.581-.865,2.3-1.822,2.892-1.822,1.118-4.782-.093-6.425-1.261-3.652-2.595-2.693-6.326-5.033-13.042-2.9-8.311-6.834-9.774-8.658-14C7.935,25.8,8.147,25.1,7.57,23.16,5.92,17.6,4.194,16.729,4.559,13.984c.285-2.149,1.567-3.3.814-4.653-.389-.7-.976-.828-1.862-1.4A9.837,9.837,0,0,1,0,3.732" transform="translate(260.3 134.335)" fill="#44250b"/>
            <path id="Fill_281" data-name="Fill 281" d="M28.018,30.654H2.636A2.636,2.636,0,0,1,0,28.018V2.636A2.636,2.636,0,0,1,2.636,0H28.018a2.636,2.636,0,0,1,2.636,2.636V28.018a2.636,2.636,0,0,1-2.636,2.636" transform="translate(160.005 71.076)" fill="#fff"/>
            <path id="Fill_282" data-name="Fill 282" d="M12.4,0,0,3.3,5.877,4.867,12.4,6.6l6.525-1.735L24.8,3.3Z" transform="translate(162.724 79.765)" fill="#bdd3f0"/>
            <path id="Fill_283" data-name="Fill 283" d="M13.051,0V7.578a12.791,12.791,0,0,1-6.525,1.8A12.793,12.793,0,0,1,0,7.578V0L6.526,1.736Z" transform="translate(168.601 85.056)" fill="#bdd3f0"/>
            <path id="Fill_284" data-name="Fill 284" d="M.2,0A3.772,3.772,0,0,0,.1,2.068,4.1,4.1,0,0,0,2.313,4.68l.291-.5a.794.794,0,0,1-.609-.186.726.726,0,0,1-.2-.318,1.393,1.393,0,0,0,.438.239,1.37,1.37,0,0,0,.477.066,3.614,3.614,0,0,1-.928-.6A4.471,4.471,0,0,1,.457.053L.2,0" transform="translate(186.391 83.976)" fill="#bdd3f0"/>
            <path id="Fill_285" data-name="Fill 285" d="M.655.327A.328.328,0,1,1,.328,0,.328.328,0,0,1,.655.327" transform="translate(186.391 83.737)" fill="#bdd3f0"/>
            <path id="Fill_286" data-name="Fill 286" d="M7.984,3.992A3.992,3.992,0,1,1,3.991,0,3.992,3.992,0,0,1,7.984,3.992" transform="translate(226.511 96.545)" fill="#fff"/>
            <path id="Fill_287" data-name="Fill 287" d="M7.984,3.992A3.992,3.992,0,1,1,3.991,0,3.992,3.992,0,0,1,7.984,3.992" transform="translate(215.682 96.545)" fill="#fff"/>
            <path id="Fill_288" data-name="Fill 288" d="M52.372,5.33c-.566.91-1.449,2.3-2.591,3.935C44.355,17.052,38.029,23.488,23.139,35.1,17.572,39.446,10.335,44.881,1.62,50.9L0,48.949A48.277,48.277,0,0,1,22.508,26.614c2.09-2.713,4.252-5.775,6.383-9.2a112.409,112.409,0,0,0,6.5-11.993l5-5.425L52.372,5.33" transform="translate(305.277 86.457)" fill="#ed1c24"/>
            <path id="Fill_289" data-name="Fill 289" d="M53.95,0a12.838,12.838,0,0,0-8.9,4.507C43.19,5.5,41.26,6.623,39.286,7.891a84.685,84.685,0,0,0-11.425,8.792,55.922,55.922,0,0,0-8.772,1.05A57.148,57.148,0,0,0,0,25.389q.175,1.463.35,2.924,4.61-.886,9.3-1.737Q19.991,24.7,30.062,23.113l22.561-8.186a9.853,9.853,0,0,0,4.308-7.115A9.859,9.859,0,0,0,53.95,0" transform="translate(288.648 81.945)" fill="#ed1c24"/>
            <path id="Fill_290" data-name="Fill 290" d="M4.374,2.447A17.16,17.16,0,0,0,2.86,5.283C1.617,8.256,1.686,10.476,1.136,10.5.69,10.528.231,9.093.078,8.128A6.894,6.894,0,0,1,.78,3.98,3.5,3.5,0,0,1,.5,1.1L3.063,0a2.152,2.152,0,0,1,.832.593,2.373,2.373,0,0,1,.479,1.853" transform="translate(302.666 134.803)" fill="#4f2f2e"/>
            <path id="Fill_291" data-name="Fill 291" d="M6.26,2.756A17.15,17.15,0,0,0,3.813,4.841C1.567,7.152.818,9.242.295,9.067c-.423-.142-.325-1.644-.114-2.6a6.892,6.892,0,0,1,2.173-3.6A3.509,3.509,0,0,1,3.147.079L5.938,0a2.148,2.148,0,0,1,.555.856,2.368,2.368,0,0,1-.233,1.9" transform="translate(283.387 107.145)" fill="#4f2f2e"/>
            <path id="Fill_292" data-name="Fill 292" d="M.565,9.254q1.694-.883,3.446-1.912A75.144,75.144,0,0,0,14.342,0a2.015,2.015,0,0,1,1.128.52A2.1,2.1,0,0,1,16.1,2.1a38.523,38.523,0,0,1-4.6,6.389,38.674,38.674,0,0,1-7.911,6.787A4.2,4.2,0,0,1,.52,13.292,4.033,4.033,0,0,1,.565,9.254" transform="translate(358.704 49.137)" fill="#4f2f2e"/>
            <path id="Fill_293" data-name="Fill 293" d="M1.64,8.932l1.392-1.82A30.876,30.876,0,0,0,7.5,1.589c.123-.234.748-1.417.539-1.572C7.988-.021,7.9.011,7.787.05a1.381,1.381,0,0,0-.609.474c-.2.244-.429.543-.672.9L4.913,2.63l-1.876.352L0,6.331l1.64,2.6" transform="translate(372.133 43.764)" fill="#4f2f2e"/>
            <path id="Fill_294" data-name="Fill 294" d="M16.41,18.125.427,11.209a.664.664,0,0,1-.251-1.076L7.71.453A1.228,1.228,0,0,1,9.089.082L25.071,7a.665.665,0,0,1,.252,1.076l-7.535,9.68a1.228,1.228,0,0,1-1.379.371" transform="translate(374.927 35.941)" fill="#fff"/>
            <path id="Fill_295" data-name="Fill 295" d="M14.8,16.582,0,10.18,7.924,0l14.8,6.4Z" transform="translate(376.317 36.753)" fill="#172730"/>
            <path id="Fill_296" data-name="Fill 296" d="M27.344.314a9.55,9.55,0,0,1-.893,6.454c-2.33,4.274-7.173,4.829-7.619,4.873a12.788,12.788,0,0,1-2.232,3.4C11.679,20.4,2.055,21.312.309,18.444-1.409,15.625,4.5,9.177,6.783,7A24.449,24.449,0,0,1,20.155.243a23.429,23.429,0,0,1,7.188.071" transform="translate(330.879 50.007)" fill="#172730"/>
            <path id="Fill_297" data-name="Fill 297" d="M11.483,5.451,8,6.692,6.306,13.027,0,11.87,2.518,0Z" transform="translate(356.27 45.026)" fill="#4f2f2e"/>
            <path id="Fill_298" data-name="Fill 298" d="M18.623.743a53.477,53.477,0,0,1-.956,7.048,54.468,54.468,0,0,1-6.529,16.842A29.172,29.172,0,0,0,0,27.65l1.319,2.693,4.836.522q.043,2.724.086,5.448a42.186,42.186,0,0,0,5.566,2.059A42.177,42.177,0,0,0,20.72,39.96q1.169-2.654,2.334-5.325,3.342-7.656,6.572-15.255a6.561,6.561,0,0,0,2.042-.687,6.879,6.879,0,0,0,2.85-2.955,37.215,37.215,0,0,0-1.036-4.462A37.838,37.838,0,0,0,28.764,1.2,13.887,13.887,0,0,0,18.623.743" transform="translate(335.605 55.728)" fill="#f2dcdc"/>
            <path id="Fill_299" data-name="Fill 299" d="M.565,9.254q1.694-.883,3.446-1.913A75.088,75.088,0,0,0,14.342,0a2.013,2.013,0,0,1,1.128.52A2.1,2.1,0,0,1,16.1,2.1a38.483,38.483,0,0,1-4.6,6.388,38.652,38.652,0,0,1-7.911,6.787A4.2,4.2,0,0,1,.52,13.291,4.031,4.031,0,0,1,.565,9.254" transform="translate(374.155 55.823)" fill="#4f2f2e"/>
            <path id="Fill_300" data-name="Fill 300" d="M5.44,4.194,0,1.186,1.495,0,8.922,2.953Z" transform="translate(358.831 47.525)" fill="#3a2121"/>
            <path id="Fill_301" data-name="Fill 301" d="M1.64,8.933C3.4,6.967,6.58,3.336,7.5,1.589,7.622,1.361,8.25.173,8.04.017,7.988-.021,7.9.012,7.787.05a1.376,1.376,0,0,0-.609.474c-.2.244-.429.543-.672.9L4.913,2.631l-1.647.585L0,6.331l1.64,2.6" transform="translate(387.584 50.45)" fill="#4f2f2e"/>
            <path id="Fill_302" data-name="Fill 302" d="M3.15,4.622a6.125,6.125,0,0,1-.136-1.5A6.92,6.92,0,0,1,3.3,1.412c.251-.829.537-1.175.383-1.34S3.114.027,2.827.227c-.466.325-.427.79-.7,1.464-.437,1.085-1,1.028-1.6,2.187A5.208,5.208,0,0,0,0,5.549a3.154,3.154,0,0,0,1.562.021A3.172,3.172,0,0,0,3.15,4.622" transform="translate(387.749 50.898)" fill="#4f2f2e"/>
            <path id="Fill_303" data-name="Fill 303" d="M6.71,0A6.329,6.329,0,0,1,7.65,1.455a6.668,6.668,0,0,1,.507,3.819A4.958,4.958,0,0,0,9.766,7.606L9.052,8.8a8.16,8.16,0,0,1,.089,1.609,8.3,8.3,0,0,1-.649,2.862,11.991,11.991,0,0,1-1.964,0A12.979,12.979,0,0,1,.014,10.782,11.041,11.041,0,0,1,.709,6.3a11.93,11.93,0,0,1,6-6.3" transform="translate(359.26 37.204)" fill="#4f2f2e"/>
            <path id="Fill_304" data-name="Fill 304" d="M70.031,6.443a3.173,3.173,0,0,1-.087,2.319,6.72,6.72,0,0,1-3.658,3.915c-.175.769-.461,1.915-.9,3.278-1.236,3.885-1.879,5.9-3.557,6.707-.483.231-1.958.794-4.541-.395a6.64,6.64,0,0,1-1.44,1.21,6.933,6.933,0,0,1-3.71,1.012,37.92,37.92,0,0,1-2.717,5.37c-2.228,3.652-6.4,10.494-14.275,13.326a23.822,23.822,0,0,1-14.845.121,5.51,5.51,0,0,1-1.6,2.187,5.971,5.971,0,0,1-4.563,1.167,5.008,5.008,0,0,1-3.111,1.14c-2.441-.044-4.815-2.263-5.581-5.556a8.752,8.752,0,0,1-2.6-9.111A7.779,7.779,0,0,1,.058,28.391C-.7,22.907,6.032,16.631,12.387,16.841a10.625,10.625,0,0,1,5.482,1.85,32.959,32.959,0,0,1,4.137-1.09,33.9,33.9,0,0,1,12.1-.131,5.393,5.393,0,0,1-.288-3.266,5.717,5.717,0,0,1,3.026-3.665,13.743,13.743,0,0,1,2.081-4.2c3.6-4.894,10.7-7.4,16.3-5.905,3.982,1.06,3.882,3.256,8.676,4.148,2.711.5,5.369.29,6.13,1.867" transform="translate(296.32 29.879)" fill="#172730"/>
            <path id="Fill_305" data-name="Fill 305" d="M4.04,2.584A18.466,18.466,0,0,1,2.782,5.271,18.511,18.511,0,0,1,.425,8.525,15.4,15.4,0,0,1,.812,0L4.04,2.584" transform="translate(361.358 61.672)" fill="#4f2f2e"/>
            <path id="Fill_306" data-name="Fill 306" d="M.171,5.8A43.874,43.874,0,0,0,4.608,9.162a44.927,44.927,0,0,0,13.623,6.026A4.258,4.258,0,0,0,20.1,13.9a4.427,4.427,0,0,0,.958-3.12q-3.087-1.613-6.33-3.524c-4.037-2.39-7.7-4.839-11-7.248A3.251,3.251,0,0,0,1.863.382C.366,1.218-.355,3.4.171,5.8" transform="translate(359.197 56.033)" fill="#4f2f2e"/>
            <path id="Fill_307" data-name="Fill 307" d="M7.489,10.167c1.967.045,2.742-.437,3.051-.96.407-.687-.072-1.308.394-1.9.67-.844,2.03-.021,2.939-.865.815-.757.166-1.829,1.005-2.486.773-.606,1.718,0,2.424-.661a1.994,1.994,0,0,0,.5-1.492,7.281,7.281,0,0,1-2.928.016C13.1,1.455,12.907.67,11.437.547,9.623.4,9.116,1.525,7.744,1.015,6.91.7,6.6.1,5.764.159c-.637.042-.677.4-1.35.485C3.457.76,3.071.09,2.123.008A2.978,2.978,0,0,0,0,.8c.073.418.181,1.008.329,1.71.789,3.733,1.184,5.6,2.329,6.637.433.392,1.8,1.439,4.831,1.021" transform="translate(353.555 54.437)" fill="#f2dcdc"/>
            <path id="Fill_308" data-name="Fill 308" d="M1.176,2.573A12.126,12.126,0,0,0,2.23,1.2c.431-.75.488-1.2.715-1.2.209,0,.42.379.47.727.082.563-.283.853-.589,1.512C2.334,3.3,2.76,3.67,2.328,4.9A5.2,5.2,0,0,1,1.47,6.43C.368,6.081.125,5.511.066,5.34c-.295-.852.463-1.885,1.111-2.768" transform="translate(373.252 43.383)" fill="#4f2f2e"/>
            <path id="Fill_309" data-name="Fill 309" d="M1.94,0S-.594,6.878.13,21.177,2.483,64.434,2.483,64.434L2.845,0Z" transform="translate(434.59 204.58)" fill="#ed037c"/>
            <path id="Fill_310" data-name="Fill 310" d="M0,1.785.487,72.053l1.785-.487S7.789,55.988,7.628,50.794s-.974-8.6-.65-11.2C7.3,36.838,9.9,14.6,9.9,14.6L6.654,0Z" transform="translate(436.882 202.929)" fill="#92278f"/>
            <path id="Fill_311" data-name="Fill 311" d="M2.434,20.042,20.773,73.6H22.4s.487-17.527-.811-23.532S17.2,40,16.552,36.433,14.93,13.713,9.9,3.815,0,6.411,0,6.411Z" transform="translate(442.562 199.601)" fill="#92278f"/>
            <path id="Fill_312" data-name="Fill 312" d="M9.813.634S15.242-.814,18.5,3.892s4.887,7.963,9.955,7.42,8.688,4.706,5.249,8.507c-3.62,3.8-8.326,1.449-10.5,2.535S21.94,26.516,10.9,24.888C-.323,23.258-1.228,11.494.944,4.979,2.754-1.719,9.089.091,9.813.634" transform="translate(437.396 146.347)"/>
            <path id="Fill_313" data-name="Fill 313" d="M14.842,0A8.64,8.64,0,0,0,9.05,2.9C6.335,5.792,2.9,13.032,0,16.109A30.458,30.458,0,0,1,4.344,21l3.077-3.439L8.688,20.09a5.757,5.757,0,0,1,.725,4.163c-.182,1.629-1.992,9.593-1.992,9.593s2.716,1.267,8.507,1.448A17.414,17.414,0,0,0,25.159,33.3s-2.534-7.6-2.715-11.04.542-3.982.542-3.982,3.439-5.249,4.344-9.412C28.417,3.439,23.892,0,19,.181,16.109,0,14.842,0,14.842,0" transform="translate(428.747 170.552)" fill="#f15a22"/>
            <path id="Fill_314" data-name="Fill 314" d="M.158,7.813c-.724,5.249,1.086,10.678,4.525,11.221,3.257.543,6.878-4.163,7.6-9.412S10.836.573,7.579.03C4.32-.332,1.063,2.564.158,7.813" transform="translate(439.268 148.036)" fill="#ffdaa9"/>
            <path id="Fill_315" data-name="Fill 315" d="M0,.45v5.7H4.705V0Z" transform="translate(443.589 165.081)" fill="#ffdaa9"/>
            <path id="Fill_316" data-name="Fill 316" d="M18.281,0S11.946,8.325,8.145,11.946C4.344,15.385,0,19.186,0,19.186l1.086,1.086S17.557,11.946,22.625,4.706C21.9,1.629,18.281,0,18.281,0" transform="translate(410.466 186.842)" fill="#ffdaa9"/>
            <path id="Fill_317" data-name="Fill 317" d="M15.2,0,12.67,2.716.361,12.851,0,14.118A86.41,86.41,0,0,0,9.049,8.145c2.9-2.534,5.792-5.43,5.792-5.43Z" transform="translate(436.349 189.013)" fill="#cc524c"/>
            <path id="Fill_318" data-name="Fill 318" d="M18.281,0S11.946,8.325,8.145,11.946C4.344,15.385,0,19.186,0,19.186l1.086,1.086S17.557,11.946,22.625,4.706C21.9,1.629,18.281,0,18.281,0" transform="translate(426.394 186.842)" fill="#ffdaa9"/>
            <path id="Fill_319" data-name="Fill 319" d="M9.455,9.955s2.715-3.8,3.8-5.792A21.443,21.443,0,0,0,15.247,0s-2.172,3.62-3.258,5.249A9.987,9.987,0,0,1,4.026,9.412C1.491,9.412.4,8.688.044,7.058c-.363,1.267,1.629,5.611,2.171,6.154s1.629.543,2.172.724c1.086.543,1.086,1.267,1.086,1.267Z" transform="translate(435.219 176.887)" fill="#ed1c24"/>
            <path id="Fill_320" data-name="Fill 320" d="M1.218,9.412a2.952,2.952,0,0,1-.181-3.077C1.942,4.705,4.114,0,4.114,0S1.942,3.8.675,6.154.313,13.936.313,13.936l1.811-1.991Z" transform="translate(434.407 176.163)" fill="#ed1c24"/>
            <path id="Fill_321" data-name="Fill 321" d="M0,5.632A9.632,9.632,0,0,1,3.8,4.365,5.131,5.131,0,0,1,6.878,5.812a34.966,34.966,0,0,1-.9-5.792C5.249-.341.724,4.183,0,5.632" transform="translate(445.218 191.708)" fill="#ed1c24"/>
            <path id="Fill_322" data-name="Fill 322" d="M2.943,1.658A8.441,8.441,0,0,0,.227,6.364C-.859,2.744,2.218-.332,3.848.029c1.629.181-.9,1.629-.9,1.629" transform="translate(439.56 148.761)" fill="#51495b"/>
            <path id="Fill_323" data-name="Fill 323" d="M0,2.715a6.592,6.592,0,0,0,2.534-.543A5.109,5.109,0,0,0,4.344,0l.181,1.629v2.9L.363,3.439V2.715Z" transform="translate(443.588 164.356)" fill="#f2b186"/>
            <path id="Fill_324" data-name="Fill 324" d="M.013,3.075A4.207,4.207,0,0,0,2.728,7.238C5.8,8.686,7.253,9.41,7.434,11.4c0,1.991-2.172,2.534-2.716,5.068-.543,2.715.906,3.8.906,3.8A15.154,15.154,0,0,0,10.33,8.143C9.606.722,2.185-3.079.013,3.075" transform="translate(442.49 147.344)"/>
            <path id="Fill_325" data-name="Fill 325" d="M3.507,3.966V0L0,.5.974,3.14l.389.991H2.729Z" transform="translate(461.379 268.03)" fill="#ffcca6"/>
            <path id="Fill_326" data-name="Fill 326" d="M5.013.884A2.77,2.77,0,0,1,5.5,2.993a16.676,16.676,0,0,0-.487,1.785H4.526V3.155a4.461,4.461,0,0,0-.649.811c-.324.325-.487.811-1.136.811H.144s-.325-.811,0-1.136A8.235,8.235,0,0,0,2.254,2.182C2.579,1.7,1.93.235,2.416.072c.487,0,1.623-.162,1.623,0a2.742,2.742,0,0,1,.325.811Z" transform="translate(460.593 271.826)" fill="#51495b"/>
            <path id="Fill_327" data-name="Fill 327" d="M8.078,1.086a2.884,2.884,0,0,1-1.991.543c-1.448,0-3.258-.181-3.8.542-.363.724.724,1.267.543,1.629C2.649,3.982.838,4.163.476,3.62S-.79.9,1.563.543C3.734.181,6.992,0,6.992,0Z" transform="translate(419.402 206.027)" fill="#ffdaa9"/>
            <path id="Fill_328" data-name="Fill 328" d="M8.078,1.086a2.885,2.885,0,0,1-1.991.543c-1.448,0-3.258-.181-3.8.542-.362.724.724,1.267.543,1.629C2.649,3.982.838,4.163.476,3.62S-.791.9,1.562.543C3.734.181,6.992,0,6.992,0Z" transform="translate(403.474 196.932)" fill="#ffcca6"/>
            <path id="Fill_329" data-name="Fill 329" d="M7.1.322S4.569,5.208,2.578,6.113-.5,6.476.225,4.484A15.556,15.556,0,0,1,2.94.322,6.524,6.524,0,0,1,7.1.322" transform="translate(440.649 170.231)" fill="#ffdaa9"/>
            <path id="Fill_330" data-name="Fill 330" d="M2.434,3.57,3.732,0H0V3.084l.487.973Z" transform="translate(437.207 270.113)" fill="#f2b186"/>
            <path id="Fill_331" data-name="Fill 331" d="M5.337.974A3.42,3.42,0,0,1,5.5,3.083a16.6,16.6,0,0,0-.487,1.785H4.526V3.246a4.408,4.408,0,0,0-.649.811c-.325.325-.487.811-1.136.811H.144s-.324-.811,0-1.136a8.245,8.245,0,0,0,2.11-1.46C2.578,1.785,2.741,0,3.227,0s1.3,0,1.461.325c.162.162.162.649.162.649Z" transform="translate(434.304 272.71)" fill="#51495b"/>
            <path id="Fill_332" data-name="Fill 332" d="M1.991,3.62H14.118a1.81,1.81,0,0,0,0-3.62H1.81A1.813,1.813,0,0,0,0,1.81,2.107,2.107,0,0,0,1.991,3.62" transform="translate(386.937 207.068)"/>
            <path id="Fill_333" data-name="Fill 333" d="M0,36.018H1.629V0H0Z" transform="translate(388.385 210.688)"/>
            <path id="Fill_334" data-name="Fill 334" d="M26.425,0H10.136A2.73,2.73,0,0,0,7.6,1.629L0,18.642H1.086L8.507,2.353a1.819,1.819,0,0,1,1.81-1.086H26.245V0Z" transform="translate(361.959 222.09)" fill="#5c6270"/>
            <path id="Fill_335" data-name="Fill 335" d="M0,2.352V0H1.267V2.534Z" transform="translate(371.914 219.738)" fill="#5c6270"/>
            <path id="Fill_336" data-name="Fill 336" d="M3.62.9H26.968c1.449,0,2.716-.362,3.077-.9a.665.665,0,0,1,.181.543c0,.724-1.448,1.448-3.439,1.448H3.439C1.629,1.991,0,1.267,0,.543A.666.666,0,0,1,.181,0,8.66,8.66,0,0,0,3.62.9" transform="translate(363.951 217.928)"/>
            <path id="Fill_337" data-name="Fill 337" d="M26.425,1.81H3.077C1.629,1.81.362,1.448,0,.9A4.447,4.447,0,0,1,3.077,0H26.425c1.448,0,2.716.362,3.077.9a5.125,5.125,0,0,1-3.077.9" transform="translate(364.493 217.023)"/>
            <path id="Fill_338" data-name="Fill 338" d="M21,51.4a17.545,17.545,0,0,1-8.167-2.031,21.347,21.347,0,0,1-6.674-5.526,26.672,26.672,0,0,1-4.5-8.173,30.931,30.931,0,0,1,0-19.944,26.669,26.669,0,0,1,4.5-8.173A21.346,21.346,0,0,1,12.828,2.03a17.442,17.442,0,0,1,16.335,0,21.347,21.347,0,0,1,6.674,5.526,26.669,26.669,0,0,1,4.5,8.173,30.928,30.928,0,0,1,0,19.944,26.672,26.672,0,0,1-4.5,8.173,21.348,21.348,0,0,1-6.674,5.526A17.545,17.545,0,0,1,21,51.4ZM21,3.982A16.343,16.343,0,0,0,8.3,10.384a24.458,24.458,0,0,0-5.226,15.5,25.865,25.865,0,0,0,1.4,8.462A22.783,22.783,0,0,0,8.3,41.312,18.2,18.2,0,0,0,14,46.041a15,15,0,0,0,7,1.742,16.345,16.345,0,0,0,12.693-6.4,24.457,24.457,0,0,0,5.226-15.5,24.457,24.457,0,0,0-5.226-15.5A16.345,16.345,0,0,0,21,3.982Z" transform="translate(366.484 224.082)"/>
            <path id="Fill_339" data-name="Fill 339" d="M21,51.4a17.545,17.545,0,0,1-8.167-2.031,21.347,21.347,0,0,1-6.674-5.526,26.672,26.672,0,0,1-4.5-8.173,30.931,30.931,0,0,1,0-19.944,26.669,26.669,0,0,1,4.5-8.173A21.346,21.346,0,0,1,12.828,2.03a17.442,17.442,0,0,1,16.335,0,21.346,21.346,0,0,1,6.674,5.526,26.669,26.669,0,0,1,4.5,8.173,30.931,30.931,0,0,1,0,19.944,26.672,26.672,0,0,1-4.5,8.173,21.347,21.347,0,0,1-6.674,5.526A17.545,17.545,0,0,1,21,51.4ZM21,3.982A16.343,16.343,0,0,0,8.3,10.384a24.459,24.459,0,0,0-5.226,15.5A25.507,25.507,0,0,0,4.5,34.344a22.932,22.932,0,0,0,3.869,6.968,18.447,18.447,0,0,0,5.7,4.728A14.8,14.8,0,0,0,21,47.783a16.343,16.343,0,0,0,12.692-6.4,24.458,24.458,0,0,0,5.226-15.5,24.458,24.458,0,0,0-5.226-15.5A16.343,16.343,0,0,0,21,3.982Z" transform="translate(368.114 224.082)"/>
            <path id="Fill_340" data-name="Fill 340" d="M17.376,21.9C17.376,9.955,9.593.362,0,0H.724c9.955,0,17.919,9.774,17.919,21.9S10.678,43.8.724,43.8H0c9.593-.362,17.376-9.955,17.376-21.9" transform="translate(388.566 227.883)"/>
            <path id="Fill_341" data-name="Fill 341" d="M2.715,0h.543C1.991.362,1.267,1.629,1.267,3.258A3.334,3.334,0,0,0,3.258,6.515H2.715C1.267,6.515,0,5.068,0,3.076.181,1.448,1.267,0,2.715,0" transform="translate(386.394 245.078)"/>
            <path id="Fill_342" data-name="Fill 342" d="M1.991,0C.891,0,0,1.458,0,3.258S.891,6.515,1.991,6.515,3.982,5.057,3.982,3.258,3.09,0,1.991,0" transform="translate(387.661 245.078)"/>
            <path id="Fill_343" data-name="Fill 343" d="M21.539,6.7H10.86a4.876,4.876,0,0,1-2.716-.9L.9,0,0,.725,7.24,6.878A5.529,5.529,0,0,0,10.86,8.145h9.592a.855.855,0,0,0,.9-.9V6.7Z" transform="translate(367.751 241.276)"/>
            <path id="Fill_344" data-name="Fill 344" d="M20.634,6.7H10.5a4.875,4.875,0,0,1-2.715-.9L.542,0,0,1.086,6.878,6.878A5.528,5.528,0,0,0,10.5,8.145H20.09Z" transform="translate(397.254 241.276)" fill="#26222d"/>
            <path id="Fill_345" data-name="Fill 345" d="M5.972,14.842a5.423,5.423,0,0,1-4.208-2.15A8.341,8.341,0,0,1,0,7.421C0,3.4,2.735,0,5.972,0a5.423,5.423,0,0,1,4.209,2.149,8.343,8.343,0,0,1,1.765,5.272,8.341,8.341,0,0,1-1.765,5.271A5.424,5.424,0,0,1,5.972,14.842Zm0-12.489C3.6,2.353,1.81,4.532,1.81,7.421a5.572,5.572,0,0,0,1.267,3.62,3.864,3.864,0,0,0,2.9,1.448c2.373,0,4.162-2.179,4.162-5.068C10.135,4.626,8.268,2.353,5.972,2.353Z" transform="translate(352.729 260.643)"/>
            <path id="Fill_346" data-name="Fill 346" d="M1.448,0H1.81A1.8,1.8,0,0,0,.542,1.81,1.8,1.8,0,0,0,1.81,3.62H1.448C.542,3.62,0,2.715,0,1.629A1.478,1.478,0,0,1,1.448,0" transform="translate(358.158 266.254)"/>
            <path id="Fill_347" data-name="Fill 347" d="M1.267,0C.568,0,0,.81,0,1.81S.568,3.62,1.267,3.62s1.267-.811,1.267-1.81S1.966,0,1.267,0" transform="translate(358.701 266.254)"/>
            <path id="Fill_348" data-name="Fill 348" d="M5.973,14.842a5.424,5.424,0,0,1-4.208-2.15A8.341,8.341,0,0,1,0,7.421C0,3.4,2.735,0,5.973,0a5.423,5.423,0,0,1,4.208,2.149,8.343,8.343,0,0,1,1.765,5.272,8.341,8.341,0,0,1-1.765,5.271A5.424,5.424,0,0,1,5.973,14.842Zm0-12.489C3.6,2.353,1.81,4.532,1.81,7.421a5.572,5.572,0,0,0,1.267,3.62,3.865,3.865,0,0,0,2.9,1.448c2.373,0,4.163-2.179,4.163-5.068C10.136,4.626,8.269,2.353,5.973,2.353Z" transform="translate(353.633 260.643)"/>
            <path id="Fill_349" data-name="Fill 349" d="M3.62,5.069C3.62,2.535,1.991.363,0,0H.362C2.715,0,4.525,2.172,4.525,5.069c0,2.715-1.811,5.068-4.164,5.068H0c1.991-.182,3.62-2.353,3.62-5.068" transform="translate(359.244 262.996)"/>
            <path id="Fill_350" data-name="Fill 350" d="M3.439,0H24.615a1.671,1.671,0,0,1,1.629,1.81l-1.81,24.616H0l1.81-24.8A1.909,1.909,0,0,1,3.439,0" transform="translate(389.29 207.611)"/>
            <path id="Fill_351" data-name="Fill 351" d="M3.439,0H24.615a1.671,1.671,0,0,1,1.629,1.81l-1.81,24.616H0l1.81-24.8A1.909,1.909,0,0,1,3.439,0" transform="translate(386.756 207.611)"/>
            <path id="Fill_352" data-name="Fill 352" d="M0,6.957H24.072s3.8-3.258,2.534-5.611C25.158-1.008.542.441.542.441Z" transform="translate(389.833 232.872)"/>
            <path id="Fill_353" data-name="Fill 353" d="M1.991,3.62H14.118a1.81,1.81,0,0,0,0-3.62H1.81A1.813,1.813,0,0,0,0,1.81,2.269,2.269,0,0,0,1.991,3.62" transform="translate(416.078 207.068)"/>
            <path id="Fill_354" data-name="Fill 354" d="M0,36.018H1.629V0H0Z" transform="translate(417.706 210.688)" fill="#26222d"/>
            <path id="Fill_355" data-name="Fill 355" d="M0,2.352V0H1.086V2.534Z" transform="translate(401.236 219.738)" fill="#26222d"/>
            <path id="Fill_356" data-name="Fill 356" d="M27.693,7.04H3.077S0,3.239,0,.886s5.068.724,13.032.724C22.806,1.611,26.968-.2,28.96.525s1.448,3.439-1.267,6.515" transform="translate(362.14 232.788)"/>
            <path id="Fill_357" data-name="Fill 357" d="M35.837,0H.724A.779.779,0,0,0,0,.724a.778.778,0,0,0,.724.724H35.475Z" transform="translate(361.236 240.733)" fill="#26222d"/>
            <path id="Fill_358" data-name="Fill 358" d="M4.344.363s-.363,14.479-.724,16.289-1.81,2.534-2.172,5.068c-.181,1.991-.362,3.8-.362,4.706,0,.181-.181.363-.543.363A.579.579,0,0,1,0,26.245c0-1.086.181-3.8.363-5.43.181-1.991,1.629-3.62,2.172-5.067S3.258,0,3.258,0H4.344Z" transform="translate(359.063 241.276)" fill="#26222d"/>
            <path id="Fill_359" data-name="Fill 359" d="M.642,10.565c1.629,5.068,5.792,9.231,9.05,8.145s4.163-6.878,2.534-11.946S6.8-.838,3.719.248-.986,5.5.642,10.565" transform="translate(393.353 173.517)" fill="#ffcca6"/>
            <path id="Fill_360" data-name="Fill 360" d="M27.693.41S9.593-1.4,7.24,2.583C4.706,6.565,0,33.533,0,33.533H23.53s7.058-19.909,7.964-24.977c.724-5.069-1.449-7.964-3.8-8.145" transform="translate(380.783 194.35)" fill="#00b2e3"/>
            <path id="Fill_361" data-name="Fill 361" d="M8.688.241l-7.6,20.452H0L7.6.241c-.181,0,.542-.543,1.086,0" transform="translate(377.887 241.397)" fill="#26222d"/>
            <path id="Fill_362" data-name="Fill 362" d="M9.231.241,1.086,22.323H0L8.145.241a.752.752,0,0,1,1.086,0" transform="translate(353.452 241.397)" fill="#26222d"/>
            <path id="Fill_363" data-name="Fill 363" d="M1.81,0H26.245l-.9,2.534a2.723,2.723,0,0,1-2.534,1.811H0Z" transform="translate(353.633 259.376)" fill="#26222d"/>
            <path id="Fill_364" data-name="Fill 364" d="M.771,0H18.147V1.629H.771A.778.778,0,0,1,.047.9C-.134.362.228,0,.771,0" transform="translate(348.88 261.91)" fill="#26222d"/>
            <path id="Fill_365" data-name="Fill 365" d="M1.086,0,0,2.534H24.977L25.883,0Z" transform="translate(353.995 259.376)"/>
            <path id="Fill_366" data-name="Fill 366" d="M24.8,0a36.987,36.987,0,0,0-7.964,6.154c-3.982,3.982-6.878,7.058-9.773,3.439A26.048,26.048,0,0,1,2.9,1.086L0,2.172S.724,15.385,6.878,17.737s12.49-2.172,12.49-2.172Z" transform="translate(364.855 195.665)" fill="#00b2e3"/>
            <path id="Fill_367" data-name="Fill 367" d="M14.3,6.515S9.412,2.714,8.326,0C5.792,9.773,0,25.339,0,25.339H8.145c-.181.181,5.43-16.108,6.154-18.824" transform="translate(396.168 202.363)" fill="#047bc1"/>
            <path id="Fill_368" data-name="Fill 368" d="M14.842,13.213,18.281,0S14.118,8.507,9.955,11.946C5.974,15.566,1.991,14.3,0,12.67c1.086,1.629,3.982,3.8,8.507,2.9s6.335-2.353,6.335-2.353" transform="translate(369.018 198.199)" fill="#00b2e3"/>
            <path id="Fill_369" data-name="Fill 369" d="M3.62.9H26.968c1.448,0,2.715-.362,3.077-.9a.666.666,0,0,1,.181.543c0,.724-1.447,1.448-3.439,1.448H3.439C1.629,1.991,0,1.267,0,.543A.666.666,0,0,1,.181,0,7.867,7.867,0,0,0,3.62.9" transform="translate(393.272 217.928)" fill="#26222d"/>
            <path id="Fill_370" data-name="Fill 370" d="M26.426,1.81H3.077C1.629,1.81.363,1.448,0,.9A4.448,4.448,0,0,1,3.077,0H26.426c1.448,0,2.715.362,3.077.9a5.628,5.628,0,0,1-3.077.9" transform="translate(393.814 217.023)" fill="#51495b"/>
            <path id="Fill_371" data-name="Fill 371" d="M11.221,0a12.011,12.011,0,0,1,4.344,3.258c1.81,2.534,10.5,15.746,7.6,18.642S0,22.805,0,22.805V19.547s12.67-1.267,14.118-2.353S9.955,11.4,9.955,11.4,4.887,3.8,11.221,0" transform="translate(397.978 194.942)" fill="#00b2e3"/>
            <path id="Fill_372" data-name="Fill 372" d="M22.444,0s1.991,3.8-2.9,5.972S0,7.6,0,7.6v.724s11.4,1.086,17.014.543c5.43-.543,7.24-1.267,7.24-3.62A15.74,15.74,0,0,0,22.444,0" transform="translate(397.796 209.783)" fill="#047bc1"/>
            <path id="Fill_373" data-name="Fill 373" d="M9.231,6.026S8.869,2.587,6.335,1.5C3.8.234.181-.852,0,.958,0,2.768,4.887,4.035,5.43,4.4s.724,2.9.724,2.9Z" transform="translate(358.701 190.544)" fill="#ffcca6"/>
            <path id="Fill_374" data-name="Fill 374" d="M39.642,3.167s1.991,6.335-3.259,7.6-24.977-1.81-27.511-.543c-.543.181.181,1.629-1.086,10.5C6.52,28.326,4.71,34.842,4.71,34.842H.365S-1.263,9.139,2.357,3.348C5.8-2.806,31.5.995,39.642,3.167" transform="translate(357.069 224.716)" fill="#c1b28f"/>
            <path id="Fill_375" data-name="Fill 375" d="M8.507,0S4.344.543,3.982.724,0,6.154,0,7.24s1.448,1.086,2.9,0S5.973,3.258,6.335,3.077a8.573,8.573,0,0,1,2.172,0Z" transform="translate(389.29 214.851)" fill="#ffcca6"/>
            <path id="Fill_376" data-name="Fill 376" d="M40.543,3.206s1.991,6.335-3.259,7.6S16.29,9,13.574,10.264c-.543.181-.361,4.887-3.257,11.946S5.43,34.7,5.43,34.7H0S3.982,9,7.421,3.206c3.982-5.973,25.158-2.172,33.123,0" transform="translate(363.588 224.677)" fill="#c1b28f"/>
            <path id="Fill_377" data-name="Fill 377" d="M16.29,0s0,3.258-4.344,5.611C7.6,7.782,0,8.325,0,8.325L11.765,9.412s7.6.906,10.68,0S24.8,3.077,23.711,1.629C22.262,1.267,16.29,0,16.29,0" transform="translate(380.421 226.073)" fill="#c1b28f"/>
            <path id="Fill_378" data-name="Fill 378" d="M21,51.4a17.545,17.545,0,0,1-8.167-2.031,21.347,21.347,0,0,1-6.674-5.526,26.672,26.672,0,0,1-4.5-8.173,30.931,30.931,0,0,1,0-19.944,26.669,26.669,0,0,1,4.5-8.173A21.346,21.346,0,0,1,12.828,2.03a17.442,17.442,0,0,1,16.335,0,21.347,21.347,0,0,1,6.674,5.526,26.669,26.669,0,0,1,4.5,8.173,30.928,30.928,0,0,1,0,19.944,26.672,26.672,0,0,1-4.5,8.173,21.348,21.348,0,0,1-6.674,5.526A17.545,17.545,0,0,1,21,51.4ZM21,3.982A16.343,16.343,0,0,0,8.3,10.384a24.458,24.458,0,0,0-5.226,15.5A25.507,25.507,0,0,0,4.5,34.344a22.932,22.932,0,0,0,3.869,6.968,18.447,18.447,0,0,0,5.7,4.728A14.8,14.8,0,0,0,21,47.783a16.345,16.345,0,0,0,12.693-6.4,24.457,24.457,0,0,0,5.226-15.5,24.457,24.457,0,0,0-5.226-15.5A16.345,16.345,0,0,0,21,3.982Z" transform="translate(395.625 224.082)"/>
            <path id="Fill_379" data-name="Fill 379" d="M21,51.4a17.545,17.545,0,0,1-8.167-2.031,21.347,21.347,0,0,1-6.674-5.526,26.672,26.672,0,0,1-4.5-8.173,30.931,30.931,0,0,1,0-19.944,26.669,26.669,0,0,1,4.5-8.173A21.346,21.346,0,0,1,12.828,2.03a17.442,17.442,0,0,1,16.335,0,21.347,21.347,0,0,1,6.674,5.526,26.669,26.669,0,0,1,4.5,8.173,30.928,30.928,0,0,1,0,19.944,26.672,26.672,0,0,1-4.5,8.173,21.348,21.348,0,0,1-6.674,5.526A17.545,17.545,0,0,1,21,51.4ZM20.273,3.982h0l.136,0A16.4,16.4,0,0,0,8.117,10.612a24.63,24.63,0,0,0-5.04,15.271A24.411,24.411,0,0,0,8.131,41.035a16.819,16.819,0,0,0,12.321,6.74l-.142.006h.323l-.154-.007h-.026a16.581,16.581,0,0,0,12.23-6.74,24.638,24.638,0,0,0,4.965-15.153A24.526,24.526,0,0,0,32.6,10.645,16.607,16.607,0,0,0,20.408,3.987l.16,0h-.3Z" transform="translate(397.435 224.082)"/>
            <path id="Fill_380" data-name="Fill 380" d="M2.716,0h.543C1.992.362,1.267,1.629,1.267,3.258A3.333,3.333,0,0,0,3.259,6.515H2.716C1.267,6.515,0,5.068,0,3.076A3,3,0,0,1,2.716,0" transform="translate(415.715 245.078)"/>
            <path id="Fill_381" data-name="Fill 381" d="M1.991,0C.891,0,0,1.458,0,3.258S.891,6.515,1.991,6.515,3.982,5.057,3.982,3.258,3.09,0,1.991,0" transform="translate(416.982 245.078)"/>
            <path id="Fill_382" data-name="Fill 382" d="M26.425,0H10.136A2.73,2.73,0,0,0,7.6,1.629L0,18.642H1.086L8.507,2.353a1.819,1.819,0,0,1,1.81-1.086H26.245V0Z" transform="translate(391.1 222.09)" fill="#26222d"/>
            <path id="Fill_383" data-name="Fill 383" d="M9.467,0V2.715H.236S-.488,2.172.6,1.629A15,15,0,0,1,4.4.181H9.467Z" transform="translate(352.311 259.376)" fill="#e0d5d8"/>
            <path id="Fill_384" data-name="Fill 384" d="M9.467,0V2.715H.237S-.488,2.172.6,1.629A15,15,0,0,1,4.4.181H9.467Z" transform="translate(359.189 259.376)" fill="#efe6e8"/>
            <path id="Fill_385" data-name="Fill 385" d="M8.129,6.7,7.224.724,2.7,0,1.251,6.517s-3.439,5.792,1.086,5.43S8.129,6.7,8.129,6.7" transform="translate(394.373 187.882)" fill="#ffcca6"/>
            <path id="Fill_386" data-name="Fill 386" d="M5.792,3.259A8.152,8.152,0,0,1,2.534,1.992,12.886,12.886,0,0,1,.363,0L0,1.449A9.724,9.724,0,0,0,2.716,4.707a6.015,6.015,0,0,0,3.257.724Z" transform="translate(396.349 189.149)" fill="#f2b186"/>
            <path id="Fill_387" data-name="Fill 387" d="M5.973,8.132a9.5,9.5,0,0,1,.362,3.258c-.181,1.448-.724,2.534-.362,3.62s1.991,3.259.724,4.163S3.439,18.81,2.715,16.82C1.991,15.01,0,11.39,0,9.218,0,5.055,2.9,2.7,6.335,1.978c3.258-.724,4.706-2.534,7.059-1.81s2.715,1.629,2.9,3.077c.543,2.534-.9,3.62.181,5.249s3.258,5.43-.181,7.239c-.542-4.705-1.267-7.963-3.439-8.325-2.172-.543-2.534,1.991-6.878.724" transform="translate(390.195 169.796)" fill="#fcaf17"/>
            <path id="Fill_388" data-name="Fill 388" d="M.1.906s-.542,2.172.906,2.352C2.272,3.439,3,1.448,3.539,1.267c.724-.181,2.9-.543,2.9-.543L3.176,0C3,0,.462.181.1.906" transform="translate(419.416 206.344)" fill="#ffcca6"/>
            <path id="Fill_389" data-name="Fill 389" d="M60.93,10.253H52.5c-.281-3.511-3.23-6.32-7.444-6.32a9.762,9.762,0,0,0-7.724,3.933C35.648,3.652,33.12,0,28.063,0c-5.2,0-9.41,3.652-9.551,7.865a9.484,9.484,0,0,0-4.635-.983c-3.932.14-5.477,3.932-5.9,5.2-.7,1.545-1.264.281-2.528,1.123a1.448,1.448,0,0,0-.422,1.966L1.8,15.45c-3.229.281-1.123.561-1.123.561H8.962s15.59.141,23.175.281a4.183,4.183,0,0,0,2.107.7H53.065a5.027,5.027,0,0,0,3.792-2.107,3.073,3.073,0,0,1,.422-.7h1.966a3.755,3.755,0,0,0,2.95-1.826,1.341,1.341,0,0,0-1.264-2.107" transform="translate(217.815 3.818)" fill="#e2ecf2"/>
            <path id="Fill_390" data-name="Fill 390" d="M4.948,22.3c.813-.587,3.847-2.777,5.946-4.572A44.032,44.032,0,0,0,19.488,7.585a4.463,4.463,0,0,1-.617-1.113,13.009,13.009,0,0,1-.334-2.049c-.16-.778-.347-1.269-.068-1.585a.408.408,0,0,1,.242-.157c.52-.062,1.117,1.593,1.32,2.189C20.484,3.724,21,2.539,21.6,1.327q.263-.539.533-1.055c.023-.023.359-.355.626-.251a.6.6,0,0,1,.289.665q-.442,1.239-.885,2.477L25.2,4.77c-.3.755-.635,1.57-1.014,2.434-.563,1.284-.919,2-1.544,2.1a1.006,1.006,0,0,1-.33,0,48.12,48.12,0,0,1-5.6,12.994A71.231,71.231,0,0,1,9.06,32.1c-.865.958-1.6,1.733-2.114,2.259A16.2,16.2,0,0,1,0,25.692c1.227-.8,2.942-1.948,4.948-3.4" transform="translate(113.117 52.263)" fill="#c67f60"/>
            <path id="Fill_391" data-name="Fill 391" d="M12.94,0A37.589,37.589,0,0,1,8.662,2.824C5.412,4.66,3.036,5.348.871,7.926A12.447,12.447,0,0,0,0,9.1a8.1,8.1,0,0,1,1.588,3.693c.036.244.044.4.056.476.235,1.4,1.6,3.237,6.646,5.128A71.384,71.384,0,0,0,18.919,9.406C17.8,7.846,16.66,6.167,15.527,4.365Q14.12,2.126,12.94,0" transform="translate(101.145 77.217)" fill="#ed1c24"/>
            <path id="Fill_392" data-name="Fill 392" d="M2.713,10.211l2.163-9.13L0,0Q.006,5.022.01,10.044a1.592,1.592,0,0,0,1.557.908,1.614,1.614,0,0,0,1.145-.741" transform="translate(95.505 177.288)" fill="#c67f60"/>
            <path id="Fill_393" data-name="Fill 393" d="M7.088,4.2a34.645,34.645,0,0,0,4.08-.078.891.891,0,0,0-.253-.271C8.989,2.707,7.5,1.818,6.544,1.229L5.087.482C4.376.111,4.013-.09,3.629.039,3.357.13,3.388.284,3,.477a1.517,1.517,0,0,1-1.1.163A1.366,1.366,0,0,1,1.152.06S-.5.937.153,3.471c.385.084.934.2,1.6.307A34.936,34.936,0,0,0,7.088,4.2" transform="translate(94.452 185.986)" fill="#fcaf17"/>
            <path id="Fill_394" data-name="Fill 394" d="M11.244.654a34.645,34.645,0,0,1-4.08.078A34.936,34.936,0,0,1,1.824.307C1.162.2.614.084.229,0c0,0-.71.8.372,1.459l10.661.025a.866.866,0,0,0,.07-.631.828.828,0,0,0-.088-.2" transform="translate(94.377 189.457)" fill="#312b30"/>
            <path id="Fill_395" data-name="Fill 395" d="M4.542,9.538,4.991.166,0,0,1.855,9.871a1.591,1.591,0,0,0,1.7.605,1.613,1.613,0,0,0,.989-.939" transform="translate(113.47 177.132)" fill="#c67f60"/>
            <path id="Fill_396" data-name="Fill 396" d="M4.482,4.568A15.256,15.256,0,0,1,8.122,0l12.11,1.947c-.242,4.881.314,16.175-1.894,24.386-1.955,7.27-2.877,10.884-4.891,16.853-2.521,7.472-2.52,15.371-6.73,28.294L0,70.838c.364-9.2.763-12.668,2.057-16.388.125-2.491.44-6.945.564-8.711.159-2.254.626-2.624.786-6.147,0,0-.633-26.379-.14-30.932.051-.467.12-.837.146-.97A12.035,12.035,0,0,1,4.482,4.568" transform="translate(95.323 108.987)" fill="#231e3b"/>
            <path id="Fill_397" data-name="Fill 397" d="M7.136,4.114a34.558,34.558,0,0,0,4.077-.188.884.884,0,0,0-.261-.264C9,2.567,7.479,1.719,6.512,1.156L5.035.449C4.314.1,3.946-.094,3.567.046,3.3.145,3.331.3,2.944.5a1.509,1.509,0,0,1-1.1.193A1.367,1.367,0,0,1,1.09.135s-1.628.922-.9,3.437c.387.074.938.172,1.6.262a34.752,34.752,0,0,0,5.348.28" transform="translate(114.163 185.719)" fill="#fcaf17"/>
            <path id="Fill_398" data-name="Fill 398" d="M11.241.354A34.558,34.558,0,0,1,7.165.542,34.764,34.764,0,0,1,1.816.262C1.151.172.6.074.213,0c0,0-.688.815.411,1.449l10.658-.266a.86.86,0,0,0,.053-.632.839.839,0,0,0-.094-.2" transform="translate(114.135 189.291)" fill="#312b30"/>
            <path id="Fill_399" data-name="Fill 399" d="M.058,5.49A14.679,14.679,0,0,1,1.608.279C8.184.133,11.421.146,18,0q.527,8.466.779,17.437c.092,3.4.293,10.751.162,18.42A295.241,295.241,0,0,1,16.5,68.641c-2,.118-5.89,2.35-5.983.354-.75-15.961-5.81-40.17-8.505-52.153C1.02,12.44.883,15.006.862,14.919c0-.007-.544-5.368-.557-5.425-.04-.177-.107-.5-.168-.91A12.841,12.841,0,0,1,.058,5.49" transform="translate(102.097 111.655)" fill="#231e3b"/>
            <path id="Fill_400" data-name="Fill 400" d="M13.9,6.432,8.584,9.883l-1.163,5q.04,2.019.081,4.039L.8,13.179q.421-2.771.841-5.543L0,3.489,1.338,0Z" transform="translate(103.081 65.645)" fill="#c67f60"/>
            <path id="Fill_401" data-name="Fill 401" d="M0,4.6Q1.008,6.155,2.159,7.771C3.573,9.749,5,11.556,6.392,13.2a12.45,12.45,0,0,0,3.058-.141,12.545,12.545,0,0,0,4.126-1.489,10.1,10.1,0,0,0-.383-1.815,10.207,10.207,0,0,0-.849-1.972q.344-.5.687-1L11.136,4.91q.045-.541.09-1.082c-.311-.325-.774-.8-1.361-1.344A13.957,13.957,0,0,0,7.745.7,5.306,5.306,0,0,0,2.914.48,5.6,5.6,0,0,0,0,4.6" transform="translate(103.401 60.508)" fill="#c67f60"/>
            <path id="Fill_402" data-name="Fill 402" d="M11.429,1.952a13.761,13.761,0,0,0-1.124.811C8.946,3.852,7.9,4.691,7.66,5.852,7.331,7.469,8.73,8.963,9.049,9.289L7.63,9.757l.257,2.312-3.4,1.761L3.348,13.7l-.094-1.288a6.973,6.973,0,0,1-3-3.944A6.167,6.167,0,0,1,.186,5.241C1.12,1.662,5.172.5,5.761.34a5.4,5.4,0,0,1,4.2.191,4.31,4.31,0,0,1,1.472,1.421" transform="translate(100.197 59.505)" fill="#172730"/>
            <path id="Fill_403" data-name="Fill 403" d="M1.048,33.349c8.465-.023,12.448.026,20.912,0,1.171-2.6,2.23-6.657.993-9.842-1.026-2.642-4.162-6.279-4.572-8.327C16.819,7.4,15.361,5.356,13.029.672a7.2,7.2,0,0,1-3.493.806A7.283,7.283,0,0,1,5.371,0C4.345.855,2.22,2.022,1.34,4.434,0,8.11,1.549,12.031.064,24.27c-.314,2.592.607,5.3.984,9.078" transform="translate(98.134 78.303)" fill="#f15a22"/>
            <path id="Fill_404" data-name="Fill 404" d="M11.949,14.45c.9-2.206,1.6-4.152,2.11-5.695a6.481,6.481,0,0,0-.908-5.982A7.1,7.1,0,0,0,9.5.261C9.346.216,9.191.176,9.037.143a6.565,6.565,0,0,0-7.712,5.23C.763,8.2.36,10.644.068,12.612c-.024.166-.044.314-.068.475l11.787,1.756c.054-.131.106-.255.162-.392" transform="translate(98.198 81.604)" fill="#f15a22"/>
            <path id="Fill_405" data-name="Fill 405" d="M22.292,29.59a.555.555,0,0,0-.11-.728l-1.869-2.023,2.177,1.7a.519.519,0,0,0,.641-.815L19.5,24.352l1.555.84a.643.643,0,0,0,.674-.038.527.527,0,0,0,.213-.387c.006-.275-.269-.482-.451-.615a19.788,19.788,0,0,0-1.772-1.19c-1.1-.613-1.253-.681-1.522-.684a2.015,2.015,0,0,0-1.212.439A42.257,42.257,0,0,1,10.537,14.2,41.932,41.932,0,0,1,7.95,8.837c-.007-.21-.008-.422-.005-.637A14.526,14.526,0,0,1,9.927,1.28L1.086,0C-.631,6.322.244,7.932.082,10.437A13.7,13.7,0,0,0,4.1,15.508C7.075,17.885,9.777,21.566,14.624,25a2.2,2.2,0,0,0,.057,1.01,2.307,2.307,0,0,0,.507.88c.514.583,2.009,2.16,4.075,4.231a.529.529,0,0,0,.769-.614q-.8-.91-1.6-1.822L20.29,30.51a.583.583,0,0,0,.844.055.572.572,0,0,0,.031-.7l-1.717-2.011,2.035,1.822a.559.559,0,0,0,.809-.083" transform="translate(100.058 95.167)" fill="#c67f60"/>
            <path id="Fill_406" data-name="Fill 406" d="M2.236.661.976,2.985a.541.541,0,0,1-.765.19.537.537,0,0,1-.137-.7Q.595,1.248,1.117.022a.888.888,0,0,1,1.119.64" transform="translate(134.204 55.325)" fill="#c67f60"/>
            <path id="Fill_407" data-name="Fill 407" d="M2.127.508l-1.1,2.269A.564.564,0,0,1,.275,3.1.554.554,0,0,1,.019,2.47Q.474,1.275.927.078a.932.932,0,0,1,1.2.429" transform="translate(135.512 55.908)" fill="#c67f60"/>
            <path id="Fill_408" data-name="Fill 408" d="M1.89.4C1.6,1.04,1.265,1.755.9,2.528A.512.512,0,0,1,0,2.22Q.432,1.128.865.037A.932.932,0,0,1,1.89.4" transform="translate(136.773 56.379)" fill="#c67f60"/>
          </g>
        </g>
        <g id="Group_412" data-name="Group 412" transform="translate(120.835 188.304)">
          <path id="Clip_411-2" data-name="Clip 411" d="M0,.235A.257.257,0,0,0,.236.512h0l1.957.16h.022A.255.255,0,0,0,2.469.438h0A.256.256,0,0,0,2.235.161h0L.278,0H.257A.259.259,0,0,0,0,.235" transform="translate(0.332 0.2)" fill="none"/>
          <g id="Group_412-2" data-name="Group 412" clip-path="url(#clip-path-9)">
            <path id="Fill_410" data-name="Fill 410" d="M0,.235A.257.257,0,0,0,.236.512h0l1.957.16h.022A.255.255,0,0,0,2.469.438h0A.256.256,0,0,0,2.235.161h0L.278,0H.257A.259.259,0,0,0,0,.235" transform="translate(0.332 0.2)" fill="none"/>
          </g>
        </g>
        <g id="Group_415" data-name="Group 415" transform="translate(119.536 187.005)">
          <path id="Clip_414-2" data-name="Clip 414" d="M.256,0A.256.256,0,0,0,0,.252H0A.256.256,0,0,0,.251.513h0L1.792.542l.639,1.364a.255.255,0,0,0,.232.148h0a.261.261,0,0,0,.109-.024h0A.257.257,0,0,0,2.9,1.688h0L2.19.181A.256.256,0,0,0,1.963.033h0L.262,0Z" transform="translate(0.124 0.536)" fill="none"/>
          <g id="Group_415-2" data-name="Group 415" clip-path="url(#clip-path-10)">
            <path id="Fill_413" data-name="Fill 413" d="M.256,0A.256.256,0,0,0,0,.252H0A.256.256,0,0,0,.251.513h0L1.792.542l.639,1.364a.255.255,0,0,0,.232.148h0a.261.261,0,0,0,.109-.024h0A.257.257,0,0,0,2.9,1.688h0L2.19.181A.256.256,0,0,0,1.963.033h0L.262,0Z" transform="translate(0.124 0.536)" fill="none"/>
          </g>
        </g>
        <g id="Group_418" data-name="Group 418" transform="translate(117.587 186.355)">
          <path id="Clip_417-2" data-name="Clip 417" d="M0,.246A.258.258,0,0,0,.246.514h0l1.44.057L2.2,1.83a.257.257,0,0,0,.237.159h0a.247.247,0,0,0,.1-.019h0a.256.256,0,0,0,.14-.334h0L2.1.223A.258.258,0,0,0,1.871.064h0L.267,0A.265.265,0,0,0,0,.246" transform="translate(0.629 0.32)" fill="none"/>
          <g id="Group_418-2" data-name="Group 418" clip-path="url(#clip-path-11)">
            <path id="Fill_416" data-name="Fill 416" d="M0,.246A.258.258,0,0,0,.246.514h0l1.44.057L2.2,1.83a.257.257,0,0,0,.237.159h0a.247.247,0,0,0,.1-.019h0a.256.256,0,0,0,.14-.334h0L2.1.223A.258.258,0,0,0,1.871.064h0L.267,0A.265.265,0,0,0,0,.246" transform="translate(0.629 0.32)" fill="none"/>
          </g>
        </g>
        <g id="Group_421" data-name="Group 421" transform="translate(118.237 185.706)">
          <path id="Clip_420-2" data-name="Clip 420" d="M.17.016A.257.257,0,0,0,.015.343h0L.529,1.787a.254.254,0,0,0,.241.17h0a.268.268,0,0,0,.086-.014h0a.257.257,0,0,0,.155-.328h0L.5.171A.257.257,0,0,0,.257,0h0A.238.238,0,0,0,.17.016" transform="translate(0.204 0.327)" fill="none"/>
          <g id="Group_421-2" data-name="Group 421" clip-path="url(#clip-path-12)">
            <path id="Fill_419" data-name="Fill 419" d="M.17.016A.257.257,0,0,0,.015.343h0L.529,1.787a.254.254,0,0,0,.241.17h0a.268.268,0,0,0,.086-.014h0a.257.257,0,0,0,.155-.328h0L.5.171A.257.257,0,0,0,.257,0h0A.238.238,0,0,0,.17.016" transform="translate(0.204 0.327)" fill="none"/>
          </g>
        </g>
        <g id="Group_424" data-name="Group 424" transform="translate(101.346 188.954)">
          <path id="Clip_423-2" data-name="Clip 423" d="M0,.235A.257.257,0,0,0,.236.512h0L2.193.673h.021A.256.256,0,0,0,2.469.438h0A.255.255,0,0,0,2.236.161h0L.278,0H.262A.261.261,0,0,0,0,.235" transform="translate(0.201 0.064)" fill="none"/>
          <g id="Group_424-2" data-name="Group 424" clip-path="url(#clip-path-13)">
            <path id="Fill_422" data-name="Fill 422" d="M0,.235A.257.257,0,0,0,.236.512h0L2.193.673h.021A.256.256,0,0,0,2.469.438h0A.255.255,0,0,0,2.236.161h0L.278,0H.262A.261.261,0,0,0,0,.235" transform="translate(0.201 0.064)" fill="none"/>
          </g>
        </g>
        <g id="Group_427" data-name="Group 427" transform="translate(99.397 187.655)">
          <path id="Clip_426-2" data-name="Clip 426" d="M.256,0A.257.257,0,0,0,0,.252H0A.257.257,0,0,0,.251.515h0L1.792.543,2.43,1.906a.257.257,0,0,0,.233.148h0a.252.252,0,0,0,.109-.025h0a.256.256,0,0,0,.123-.34h0L2.19.181A.257.257,0,0,0,1.962.033h0L.261,0Z" transform="translate(0.642 0.4)" fill="none"/>
          <g id="Group_427-2" data-name="Group 427" clip-path="url(#clip-path-14)">
            <path id="Fill_425" data-name="Fill 425" d="M.256,0A.257.257,0,0,0,0,.252H0A.257.257,0,0,0,.251.515h0L1.792.543,2.43,1.906a.257.257,0,0,0,.233.148h0a.252.252,0,0,0,.109-.025h0a.256.256,0,0,0,.123-.34h0L2.19.181A.257.257,0,0,0,1.962.033h0L.261,0Z" transform="translate(0.642 0.4)" fill="none"/>
          </g>
        </g>
        <g id="Group_430" data-name="Group 430" transform="translate(98.097 187.005)">
          <path id="Clip_429-2" data-name="Clip 429" d="M0,.247A.257.257,0,0,0,.246.514h0l1.44.057L2.2,1.83a.254.254,0,0,0,.236.159h0a.255.255,0,0,0,.1-.019h0a.255.255,0,0,0,.14-.335h0L2.1.223A.255.255,0,0,0,1.871.065h0L.267,0H.255A.257.257,0,0,0,0,.247" transform="translate(0.497 0.183)" fill="none"/>
          <g id="Group_430-2" data-name="Group 430" clip-path="url(#clip-path-15)">
            <path id="Fill_428" data-name="Fill 428" d="M0,.247A.257.257,0,0,0,.246.514h0l1.44.057L2.2,1.83a.254.254,0,0,0,.236.159h0a.255.255,0,0,0,.1-.019h0a.255.255,0,0,0,.14-.335h0L2.1.223A.255.255,0,0,0,1.871.065h0L.267,0H.255A.257.257,0,0,0,0,.247" transform="translate(0.497 0.183)" fill="none"/>
          </g>
        </g>
        <g id="Group_433" data-name="Group 433" transform="translate(98.747 186.355)">
          <path id="Clip_432-2" data-name="Clip 432" d="M.17.016A.256.256,0,0,0,.015.344h0L.528,1.788a.256.256,0,0,0,.242.17h0a.26.26,0,0,0,.085-.014h0a.256.256,0,0,0,.156-.328h0L.5.171A.255.255,0,0,0,.257,0h0A.253.253,0,0,0,.17.016" transform="translate(0.073 0.191)" fill="none"/>
          <g id="Group_433-2" data-name="Group 433" clip-path="url(#clip-path-16)">
            <path id="Fill_431" data-name="Fill 431" d="M.17.016A.256.256,0,0,0,.015.344h0L.528,1.788a.256.256,0,0,0,.242.17h0a.26.26,0,0,0,.085-.014h0a.256.256,0,0,0,.156-.328h0L.5.171A.255.255,0,0,0,.257,0h0A.253.253,0,0,0,.17.016" transform="translate(0.073 0.191)" fill="none"/>
          </g>
        </g>
        <g id="Group_446" data-name="Group 446" transform="translate(92.9 52.527)">
          <path id="Fill_434" data-name="Fill 434" d="M2.121.657C.17,4.058-.8,7.524.811,10.749c1.572,3.149,5.471,7.906,9.736,7.6,1.5-.109.973-2.358.973-2.358-2.984-3.857.8-8.633,2.713-9.915L4.849,0Z" transform="translate(0.325 3.822)" fill="#4893cd"/>
          <path id="Fill_436" data-name="Fill 436" d="M0,5.255C2,.447,9.623-1.057,14.323.723c2.08.789,4.088,5.136,3.218,8.915-2.269-.3-4.48.032-7.7.272C6.331,10.169,2.4,6.79,0,5.255" transform="translate(1.872 0.193)" fill="#4f89ca"/>
          <path id="Fill_438" data-name="Fill 438" d="M10.389,1.227a9.988,9.988,0,0,1,1.277,1.75C9.022,1.31,5.675.09,0,.391a18.815,18.815,0,0,1,10.389.835" transform="translate(6.9 2.668)" fill="#4a7eb8"/>
          <path id="Fill_440" data-name="Fill 440" d="M1.524,0A6.4,6.4,0,0,0,.031,3.443c-.235,3.186.876,5.1,3.1,7.213A12.663,12.663,0,0,1,2.066,8.892c-2.1-3.747-1.7-6.056.353-8.468Q1.958.219,1.524,0" transform="translate(2.21 7.23)" fill="#4371b0"/>
          <path id="Fill_442" data-name="Fill 442" d="M.2,0a9.723,9.723,0,0,0,.53,5.75A9.828,9.828,0,0,0,5,9.7S-.217,6.285.2,0" transform="translate(5.379 10.449)" fill="#4a7eb8"/>
          <path id="Fill_444" data-name="Fill 444" d="M0,3.027C2.61.572,4.685-.511,8.3.229,5.728.265,2.385,1.969,0,3.027" transform="translate(6.309 5.295)" fill="#4893cd"/>
        </g>
      </g>
    </g>
  </g>
</svg>
